<?xml version="1.0" encoding="UTF-8" standalone="no"?>
<!-- Created with Inkscape (http://www.inkscape.org/) -->

<svg
   width="100mm"
   height="100mm"
   version="1.1"
   viewBox="0 0 99.999995 100"
   id="svg60"
   sodipodi:docname="rustdelhi.svg"
   inkscape:export-filename="rustdelhi.png"
   inkscape:export-xdpi="96"
   inkscape:export-ydpi="96"
   inkscape:version="1.3.1 (91b66b0783, 2023-11-16, custom)"
   xmlns:inkscape="http://www.inkscape.org/namespaces/inkscape"
   xmlns:sodipodi="http://sodipodi.sourceforge.net/DTD/sodipodi-0.dtd"
   xmlns="http://www.w3.org/2000/svg"
   xmlns:svg="http://www.w3.org/2000/svg"
   xmlns:rdf="http://www.w3.org/1999/02/22-rdf-syntax-ns#"
   xmlns:cc="http://creativecommons.org/ns#"
   xmlns:dc="http://purl.org/dc/elements/1.1/">
  <sodipodi:namedview
     id="namedview1"
     pagecolor="#000000"
     bordercolor="#000000"
     borderopacity="0.25"
     inkscape:showpageshadow="2"
     inkscape:pageopacity="0.0"
     inkscape:pagecheckerboard="0"
     inkscape:deskcolor="#d1d1d1"
     inkscape:document-units="mm"
     inkscape:zoom="2.1298958"
     inkscape:cx="188.97638"
     inkscape:cy="188.97638"
     inkscape:window-width="1920"
     inkscape:window-height="1012"
     inkscape:window-x="56"
     inkscape:window-y="50"
     inkscape:window-maximized="0"
     inkscape:current-layer="svg60" />
  <title
     id="title1">RustDelhi Logo</title>
  <defs
     id="defs2">
    <linearGradient
       id="linearGradient2261"
       x1="1694.6"
       x2="1742.6"
       y1="4100.2998"
       y2="7095.1001"
       gradientTransform="matrix(0.05091,0,0,0.05091,23.43,-121.15)"
       gradientUnits="userSpaceOnUse">
      <stop
         stop-color="#ffc703"
         offset="0"
         id="stop1" />
      <stop
         stop-color="#dc204d"
         offset="1"
         id="stop2" />
    </linearGradient>
  </defs>
  <g
     transform="matrix(0.36667971,0,0,0.36667971,9.8787143,-20.455876)"
     id="g60">
    <circle
       cx="112.13"
       cy="163.55"
       r="67.448997"
       fill="#f9f9f9"
       fill-opacity="0.98755"
       stroke-width="0.82745"
       style="font-variation-settings:'wght' 700"
       id="circle2" />
    <g
       transform="matrix(0.05091,0,0,0.05091,23.43,-121.15)"
       id="g3">
      <rect
         x="2869"
         y="5785.8999"
         width="135.17999"
         height="221.34"
         ry="0"
         fill="#1a1a1a"
         stroke-width="3.1196"
         style="font-variation-settings:'wght' 700"
         id="rect2" />
      <path
         d="m 2341.1,5209 a 35.023,68.138 0 0 0 -33.02,45.621 246.69,231.16 0 0 0 -212.97,228.05 h -247.55 a 83.584,82.591 0 0 0 -83.582,81.949 l -3.4746,442.69 h 417.02 v -333.24 c 0,-55.937 68.895,-122.27 154.07,-122.27 85.172,0 153.42,66.333 153.42,122.27 v 333.24 h 412.42 l -1.0137,-442.68 a 83.126,82.138 0 0 0 -83.125,-81.951 h -224.79 a 246.69,231.16 0 0 0 -214.54,-229.15 35.023,68.138 0 0 0 -32.85,-44.523 z m -506.51,305.6 h 76.133 c 15.538,0 28.047,12.511 28.047,28.049 v 146.74 c 0,15.538 -12.508,28.049 -28.047,28.049 h -76.133 c -15.538,0 -28.047,-12.511 -28.047,-28.049 v -146.74 c 0,-15.538 12.508,-28.049 28.047,-28.049 z m 160.08,0 h 76.131 c 15.538,0 28.047,12.511 28.047,28.049 v 146.74 c 0,15.538 -12.508,28.049 -28.047,28.049 h -76.131 c -15.538,0 -28.049,-12.511 -28.049,-28.049 v -146.74 c 0,-15.538 12.51,-28.049 28.049,-28.049 z m 592.44,0 h 76.131 c 15.538,0 28.049,12.511 28.049,28.049 v 146.74 c 0,15.538 -12.51,28.049 -28.049,28.049 h -76.131 c -15.538,0 -28.047,-12.511 -28.047,-28.049 v -146.74 c 0,-15.538 12.508,-28.049 28.047,-28.049 z m 160.07,0 h 76.133 c 15.538,0 28.047,12.511 28.047,28.049 v 146.74 c 0,15.538 -12.508,28.049 -28.047,28.049 h -76.133 c -15.538,0 -28.047,-12.511 -28.047,-28.049 v -146.74 c 0,-15.538 12.509,-28.049 28.047,-28.049 z m -912.59,240.62 h 76.133 c 15.538,0 28.047,12.508 28.047,28.047 v 146.74 c 0,15.538 -12.508,28.049 -28.047,28.049 h -76.133 c -15.538,0 -28.047,-12.51 -28.047,-28.049 v -146.74 c 0,-15.538 12.508,-28.047 28.047,-28.047 z m 160.08,0 h 76.131 c 15.538,0 28.047,12.508 28.047,28.047 v 146.74 c 0,15.538 -12.508,28.049 -28.047,28.049 h -76.131 c -15.538,0 -28.049,-12.51 -28.049,-28.049 v -146.74 c 0,-15.538 12.51,-28.047 28.049,-28.047 z m 592.44,0 h 76.131 c 15.538,0 28.049,12.508 28.049,28.047 v 146.74 c 0,15.538 -12.51,28.049 -28.049,28.049 h -76.131 c -15.538,0 -28.047,-12.51 -28.047,-28.049 v -146.74 c 0,-15.538 12.508,-28.047 28.047,-28.047 z m 160.07,0 h 76.133 c 15.538,0 28.047,12.508 28.047,28.047 v 146.74 c 0,15.538 -12.508,28.049 -28.047,28.049 h -76.133 c -15.538,0 -28.047,-12.51 -28.047,-28.049 v -146.74 c 0,-15.538 12.509,-28.047 28.047,-28.047 z"
         fill="#1a1a1a"
         stroke-width="5.8708"
         id="path2" />
      <path
         d="m 2122.7,5480.9 a 216.33,203.96 0 0 1 216.33,-203.96 216.33,203.96 0 0 1 216.33,203.96"
         fill="#282828"
         stroke-width="2.2728"
         style="font-variation-settings:'wght' 700"
         id="path3" />
    </g>
    <rect
       x="54.671001"
       y="185.97"
       width="114.91"
       height="11.256"
       fill="#1a1a1a"
       stroke-width="0.13031"
       style="font-variation-settings:'wght' 700"
       id="rect3" />
    <rect
       x="46.458"
       y="182.42999"
       width="131.33"
       height="2.2560999"
       fill="#1a1a1a"
       stroke-width="0.062371"
       style="font-variation-settings:'wght' 700"
       id="rect4" />
    <g
       transform="matrix(0.021081,0,0,0.021081,8.9318,27.483)"
       id="g46">
      <g
         id="g6">
        <path
           d="m 2501.6,6043.8 -25.281,1413.3 h 431.32 v -897.69 c 0,-150.69 121.31,-272 272,-272 150.69,0 272,121.31 272,272 v 897.69 h 431.32 l -25.281,-1413.3 z"
           fill="#282828"
           stroke-width="12.817"
           id="path4" />
        <path
           d="m 2865.4,6191.5 v 1265.6 h 42.292 v -897.69 c 0,-150.69 121.31,-272 272,-272 150.69,0 272,121.31 272,272 v 897.69 h 42.267 V 6191.5 Z"
           fill="#151515"
           stroke-width="13.251"
           id="path5" />
        <path
           d="m 2497.2,6173.6 1364.1,-2e-4 -2.7041,-107.08 h -1357.8 z"
           fill="#282828"
           stroke-width="9.7184"
           id="path6" />
      </g>
      <g
         fill="#1a1a1a"
         stroke-linecap="round"
         id="g22">
        <path
           d="M 2501.6,6191.5 H 3857.7"
           stroke="#151515"
           stroke-width="35.832"
           id="path7" />
        <g
           stroke-width="23.193"
           id="g21">
          <path
             d="m 2531.1,6166.6 h 57.475 v -57.522 H 2531.1 v 0.043 z"
             id="path8" />
          <path
             d="m 2626.4,6166.6 h 57.522 v -57.522 H 2626.4 v 0.043 z"
             id="path9" />
          <path
             d="m 2721.7,6166.6 h 57.475 v -57.522 H 2721.7 v 0.043 z"
             id="path10" />
          <path
             d="m 2816.9,6166.6 h 57.522 v -57.522 h -57.523 v 0.043 z"
             id="path11" />
          <path
             d="m 2912.3,6166.6 h 57.474 v -57.522 H 2912.3 v 0.043 z"
             id="path12" />
          <path
             d="m 3007.6,6166.6 h 57.474 v -57.522 h -57.475 v 0.043 z"
             id="path13" />
          <path
             d="m 3102.8,6166.6 h 57.522 v -57.522 H 3102.8 v 0.043 z"
             id="path14" />
          <path
             d="m 3198.2,6166.6 h 57.474 v -57.522 h -57.475 v 0.043 z"
             id="path15" />
          <path
             d="m 3293.4,6166.6 h 57.522 v -57.522 H 3293.4 v 0.043 z"
             id="path16" />
          <path
             d="m 3388.7,6166.6 h 57.474 v -57.522 h -57.475 v 0.043 z"
             id="path17" />
          <path
             d="m 3484,6166.6 h 57.522 v -57.522 H 3484 v 0.043 z"
             id="path18" />
          <path
             d="m 3579.3,6166.6 h 57.474 v -57.522 h -57.475 v 0.043 z"
             id="path19" />
          <path
             d="m 3674.6,6166.6 h 57.522 v -57.522 H 3674.6 v 0.043 z"
             id="path20" />
          <path
             d="m 3769.9,6166.6 h 57.474 v -57.522 H 3769.9 v 0.043 z"
             id="path21" />
        </g>
        <path
           d="M 2452,6083 H 3907.2"
           stroke="#151515"
           stroke-width="37.119"
           id="path22" />
      </g>
      <g
         stroke-linecap="round"
         id="g28">
        <path
           d="m 2508.7,5940.7 h 1341.9 l 7.0929,128.38 h -1356.1 z"
           fill="#222222"
           stroke-width="35.268"
           id="path23" />
        <path
           d="m 2712.5,5593.5 h 934.36 l 4.9386,80.743 h -944.24 z"
           fill="#212121"
           stroke-width="23.339"
           id="path24" />
        <path
           d="m 2675.7,5669.2 h 1008 l 5.3275,161.83 h -1018.6 z"
           fill="#222222"
           stroke-width="34.318"
           id="path25" />
        <path
           d="m 2564.3,5814.3 h 1230.8 l 6.5057,128.38 h -1243.8 z"
           fill="#222222"
           stroke-width="33.777"
           id="path26" />
        <path
           d="m 3092.4,5477.9 c 51.506,-15.04 121.79,-13.812 173.64,0 52.279,13.926 127.72,81.588 127.72,81.588 h -428.23 c 0,0 78.864,-67.568 126.87,-81.588 z"
           fill="#151515"
           stroke-width="15.717"
           id="path27" />
        <path
           d="m 3113.3,5443.2 c 41.533,-11.129 88.675,-12.03 133.57,0 11.956,3.2039 8.3947,36.173 8.3947,36.173 h -151.2 c 0,0 -2.7854,-32.952 9.2346,-36.173 z"
           fill="#151515"
           stroke-width="6.2511"
           id="path28" />
      </g>
      <g
         fill="#353535"
         id="g29">
        <circle
           cx="2876.3"
           cy="5739.2998"
           r="39.722"
           id="circle28" />
        <circle
           cx="3483"
           cy="5739.2998"
           r="39.722"
           id="circle29" />
        <path
           d="m 2956.3,5699.6 h 446.78 l 2.3649,79.443 h -451.5 z"
           stroke-linecap="round"
           stroke-width="16.008"
           id="path29" />
      </g>
      <g
         stroke-linecap="round"
         id="g32">
        <path
           d="m 3054.9,5719.2 h 249.54 l 1.3233,40.338 h -252.17 z"
           fill="#151515"
           stroke-width="8.525"
           id="path30" />
        <path
           d="m 2586.8,5966.9 h 1185.7 l 6.2883,26.825 h -1198.2 z"
           fill="#171717"
           stroke-width="15.154"
           id="path31" />
        <path
           d="m 2586.8,6007.4 h 1185.7 l 6.2883,47.095 h -1198.2 z"
           fill="#171717"
           stroke-width="20.079"
           id="path32" />
      </g>
      <g
         fill="#353535"
         id="g34">
        <circle
           cx="2674"
           cy="6300.3999"
           r="87.019997"
           id="circle32" />
        <circle
           cx="3685.3"
           cy="6300.3999"
           r="87.019997"
           id="circle33" />
        <path
           d="m 2551.6,6440.8 h 251.67 l 15.024,310.82 h -278.34 z"
           stroke-linecap="round"
           stroke-width="25.31"
           id="path33" />
        <path
           d="m 2534.8,6808.5 h 282 l 1.5097,648.52 h -288.48 z"
           stroke-linecap="round"
           stroke-width="36.56"
           id="path34" />
      </g>
      <path
         d="m 2523.2,7336.6 h 305.35 l 1.6339,47.387 h -312.37 z"
         fill="#272727"
         stroke-linecap="round"
         stroke-width="10.284"
         id="path35" />
      <g
         fill="none"
         stroke-linecap="round"
         stroke-width="33.348"
         id="g38">
        <path
           d="m 2480.5,7274.5 h 381.26"
           stroke="#240a79"
           id="path36" />
        <path
           d="m 2480.5,7274.5 h 381.26"
           stroke="#1a1a1a"
           id="path37" />
        <path
           d="m 2485.1,6808.5 h 381.26"
           stroke="#1a1a1a"
           id="path38" />
      </g>
      <g
         stroke-linecap="round"
         id="g42">
        <path
           d="m 2485.1,6505.2 h 427.89"
           fill="#1a1a1a"
           stroke="#1a1a1a"
           stroke-width="35.328"
           id="path39" />
        <path
           d="m 3804.9,6440.8 h -251.67 l -15.024,310.82 h 278.34 z"
           fill="#353535"
           stroke-width="25.31"
           id="path40" />
        <path
           d="m 3821.7,6808.5 h -282 l -1.5097,648.52 h 288.48 z"
           fill="#353535"
           stroke-width="36.56"
           id="path41" />
        <path
           d="m 3833.2,7336.6 h -305.35 l -1.6339,47.387 h 312.37 z"
           fill="#272727"
           stroke-width="10.284"
           id="path42" />
      </g>
      <g
         fill="none"
         stroke="#1a1a1a"
         stroke-linecap="round"
         id="g45">
        <path
           d="M 3885.1,7274.5 H 3503.84"
           stroke-width="33.348"
           id="path43" />
        <path
           d="M 3880.5,6808.5 H 3499.24"
           stroke-width="33.348"
           id="path44" />
        <path
           d="M 3880.5,6505.2 H 3452.61"
           stroke-width="35.328"
           id="path45" />
      </g>
      <path
         d="m 2904.3,5550.5 h 550.79 l 2.9143,49.687 h -556.61 z"
         fill="#151515"
         stroke-linecap="round"
         stroke-width="14.057"
         id="path46" />
    </g>
    <g
       transform="matrix(0.080545,0,0,0.080545,-161,-306.84)"
       id="g59">
      <path
         d="m 3249.9,5265.1 h 53.866 l 65.671,837.32 h -185.21 z"
         fill="#1a1a1a"
         stroke-opacity="0"
         id="path47" />
      <g
         fill="#282828"
         id="g53">
        <path
           d="m 3251,5265.1 h 4.6929 l -49.893,837.32 h -21.594 z"
           id="path48" />
        <path
           d="m 3302.7,5265.1 h -4.6929 l 49.893,837.32 h 21.594 z"
           id="path49" />
        <path
           d="m 3260.4,5265.1 h 4.6927 l -26.628,837.32 h -21.594 z"
           id="path50" />
        <path
           d="m 3269.8,5265.1 h 4.6929 l -3.1418,837.32 h -21.594 z"
           id="path51" />
        <path
           d="m 3279.2,5265.1 h 4.6928 l 21.01,837.32 h -21.594 z"
           id="path52" />
        <path
           d="m 3288.6,5265.1 h 4.6927 l 45.309,837.32 h -21.594 z"
           id="path53" />
      </g>
      <g
         fill="#1a1a1a"
         id="g58">
        <g
           stroke-opacity="0"
           id="g57">
          <path
             d="m 3196.3,5763.4 h 158.37 c 21.504,0 -6.9596,61.769 -6.9596,61.769 h -142.03 c 0,0 -30.886,-61.769 -9.3817,-61.769 z"
             id="path54" />
          <path
             d="m 3213.1,5581.8 h 124.86 c 16.954,0 -5.4871,48.7 -5.4871,48.7 h -111.98 c 0,0 -24.351,-48.7 -7.3967,-48.7 z"
             id="path55" />
          <path
             d="m 3225.8,5454.7 h 100.32 c 13.623,0 -4.409,39.13 -4.409,39.13 h -89.972 c 0,0 -19.566,-39.13 -5.9433,-39.13 z"
             id="path56" />
          <path
             d="m 3235.4,5354.8 h 81.51 c 11.068,0 -3.582,31.792 -3.582,31.792 h -73.1 c 0,0 -15.897,-31.792 -4.8286,-31.792 z"
             id="path57" />
        </g>
        <path
           transform="matrix(17.729,0,0,17.157,1185.1,2760)"
           d="m 116.33,144.76 h 3.2962 v 0.98549 l -0.26458,0.26458 h -2.767 l -0.26458,-0.26458 z"
           id="path58" />
      </g>
    </g>
    <path
       d="m 109.34,81.44 c -0.94858,0.0765 -1.8866,0.47466 -2.3121,1.1324 l -4.6512,7.1906 -6.3589,-5.7465 c -1.1788,-1.0652 -4.0705,-0.46384 -4.6566,1.0129 l -3.1933,8.0466 c 0,0 -4.9435,-2.9532 -7.4152,-4.4298 -1.3518,-0.80758 -4.0267,0.38081 -4.3108,1.9296 -0.52116,2.8405 -1.5635,8.5216 -1.5635,8.5216 0,0 -5.4539,-1.9425 -8.1809,-2.9137 -1.4932,-0.53184 -3.8296,1.2642 -3.806,2.8492 0.04254,2.8543 0.12757,8.5628 0.12757,8.5628 0,0 -5.6463,-0.82916 -8.4694,-1.2437 -1.5574,-0.22869 -3.6687,1.7994 -3.3386,3.3386 0.61145,2.8512 1.8344,8.5538 1.8344,8.5538 l -8.7171,0.44099 c -1.5686,0.0794 -3.0177,2.6145 -2.3952,4.0564 l 3.4077,7.8924 -8.3513,2.1049 c -1.5441,0.38918 -2.5735,3.1644 -1.6692,4.4751 l 4.8812,7.0748 -7.7526,3.6806 c -1.4151,0.67183 -2.0386,3.5176 -0.91449,4.6086 l 6.2906,6.1058 -7.0486,5.2435 c -1.2571,0.93516 -0.98026,3.8364 0.33529,4.6874 l 7.1905,4.6512 -5.7465,6.359 c -1.0652,1.1788 -0.46381,4.0704 1.0129,4.6565 l 8.0466,3.1934 -4.4297,7.4151 c -0.80757,1.3518 0.38077,4.0268 1.9296,4.3109 l 8.5215,1.5634 -2.9137,8.1809 c -0.53184,1.4933 1.2643,3.8297 2.8493,3.8062 l 8.5628,-0.1276 -1.2437,8.4694 c -0.2287,1.5574 1.7994,3.6685 3.3385,3.3385 l 8.5539,-1.8343 0.44099,8.7171 c 0.07936,1.5686 2.6146,3.0178 4.0565,2.3953 l 7.8924,-3.4078 2.1049,8.3513 c 0.3892,1.5442 3.1645,2.5736 4.4752,1.6692 l 7.0747,-4.8812 3.6806,7.7527 c 0.67183,1.4149 3.5176,2.0386 4.6086,0.91455 l 6.1058,-6.2906 5.2435,7.0486 c 0.93518,1.2571 3.8365,0.98028 4.6874,-0.33531 l 4.6512,-7.1906 6.3589,5.7465 c 1.1788,1.0653 4.0705,0.46385 4.6566,-1.013 l 3.1933,-8.0465 7.4151,4.4297 c 1.3518,0.80744 4.0268,-0.38077 4.3109,-1.9296 l 1.5635,-8.5215 8.1809,2.9137 c 1.4932,0.53187 3.8296,-1.2643 3.806,-2.8493 l -0.12756,-8.5627 8.4694,1.2436 c 1.5574,0.22872 3.6686,-1.7994 3.3385,-3.3385 l -1.8343,-8.5539 8.717,-0.44099 c 1.5686,-0.0794 3.0177,-2.6145 2.3952,-4.0564 l -3.4077,-7.8924 8.3513,-2.105 c 1.5441,-0.38921 2.5735,-3.1644 1.6692,-4.4751 l -4.8812,-7.0747 7.7526,-3.6806 c 1.4151,-0.67184 2.0386,-3.5176 0.91449,-4.6087 l -6.2906,-6.1058 7.0658,-5.2565 c 1.2175,-0.90576 1.116,-3.7247 -0.1582,-4.5489 l -7.3849,-4.7768 5.9046,-6.5339 c 1.0175,-1.1259 0.36781,-3.8708 -1.0426,-4.4306 l -8.175,-3.2444 4.5165,-7.5602 c 0.77824,-1.3027 -0.39438,-3.8682 -1.887,-4.142 l -8.6508,-1.5872 2.9547,-8.2962 c 0.5091,-1.4295 -1.1414,-3.7168 -2.6587,-3.6942 l -8.7944,0.13095 1.2795,-8.7132 c 0.22048,-1.5014 -1.8447,-3.4228 -3.3284,-3.1046 l -8.5997,1.8442 -0.44498,-8.7953 c -0.0766,-1.5155 -2.4769,-2.9972 -3.8701,-2.3957 l -8.0748,3.4866 -2.1524,-8.5396 c -0.37087,-1.4715 -3.0141,-2.4564 -4.2631,-1.5946 l -7.2394,4.9949 -3.777,-7.9556 c -0.6508,-1.3708 -3.4353,-1.8211 -4.4922,-0.73223 l -6.1259,6.3112 -5.2434,-7.0486 c -0.46758,-0.62857 -1.4268,-0.87368 -2.3754,-0.79716 z m 5.9206,17.223 a 4.7151,4.7151 0 0 1 4.5033,4.9177 4.7151,4.7151 0 0 1 -4.9177,4.5034 4.7151,4.7151 0 0 1 -4.5034,-4.9177 4.7151,4.7151 0 0 1 3.5821,-4.3709 4.7151,4.7151 0 0 1 1.3356,-0.13243 z m -12.51,4.0256 9.0124,9.8029 a 4.5713,4.5713 0 0 0 6.824,-0.10488 l 7.4714,-8.6454 a 61.601,61.601 0 0 1 40.766,31.54 l -7.5651,13.423 a 4.5713,4.5713 0 0 0 2.2084,6.4575 l 11.994,5.0504 a 61.601,61.601 0 0 1 0.26281,3.3392 61.601,61.601 0 0 1 -19.108,44.565 l -15.122,-3.0506 a 4.5713,4.5713 0 0 0 -2.1783,0.0908 4.5713,4.5713 0 0 0 -3.2808,4.0049 l -1.043,12.333 a 61.601,61.601 0 0 1 -20.869,3.6569 61.601,61.601 0 0 1 -30.837,-8.4734 l -1.502,-12.993 a 4.5713,4.5713 0 0 0 -5.5823,-3.9262 l -9.9303,2.323 a 61.601,61.601 0 0 1 -13.749,-38.532 61.601,61.601 0 0 1 1.3629,-12.155 l 10.76,-4.9248 a 4.5713,4.5713 0 0 0 2.009,-6.5224 l -5.0128,-8.2882 a 61.601,61.601 0 0 1 43.109,-28.973 z m -48.214,33.552 a 4.7151,4.7151 0 0 1 1.9838,0.28748 4.7151,4.7151 0 0 1 2.7634,6.0687 4.7151,4.7151 0 0 1 -6.0687,2.7633 4.7151,4.7151 0 0 1 -2.7632,-6.0686 4.7151,4.7151 0 0 1 3.4187,-2.9558 4.7151,4.7151 0 0 1 0.66601,-0.0951 z m 115.64,7.464 a 4.7151,4.7151 0 0 1 4.4715,3.4559 4.7151,4.7151 0 0 1 -3.2855,5.8025 4.7151,4.7151 0 0 1 -5.8025,-3.2854 4.7151,4.7151 0 0 1 3.2854,-5.8026 4.7151,4.7151 0 0 1 1.3311,-0.17051 z m -98.656,60.244 a 4.7151,4.7151 0 0 1 3.1331,1.0219 4.7151,4.7151 0 0 1 0.75271,6.6256 4.7151,4.7151 0 0 1 -6.6255,0.75271 4.7151,4.7151 0 0 1 -0.75282,-6.6256 4.7151,4.7151 0 0 1 2.1732,-1.5284 4.7151,4.7151 0 0 1 1.3193,-0.2462 z m 72.013,6.4336 a 4.7151,4.7151 0 0 1 3.9947,2.1135 4.7151,4.7151 0 0 1 -1.3314,6.5339 4.7151,4.7151 0 0 1 -6.5339,-1.3315 4.7151,4.7151 0 0 1 1.3314,-6.5339 4.7151,4.7151 0 0 1 1.2134,-0.57344 4.7151,4.7151 0 0 1 1.3258,-0.20851 z"
       fill="url(#linearGradient2261)"
       stroke-width="0.58672"
       style="font-variation-settings:'wght' 700;fill:url(#linearGradient2261)"
       id="path59" />
  </g>
  <metadata
     id="metadata60">
    <rdf:RDF>
      <cc:Work
         rdf:about="">
        <cc:license
           rdf:resource="http://creativecommons.org/licenses/by-sa/4.0/" />
        <dc:title>RustDelhi Logo</dc:title>
        <dc:date>Sep 15 2023</dc:date>
        <dc:creator>
          <cc:Agent>
            <dc:title>Ishaan Arora (https://pulsar17.me)</dc:title>
          </cc:Agent>
        </dc:creator>
        <dc:contributor>
          <cc:Agent>
            <dc:title>Yash Raj (https://github.com/yash-raj10), Guinnes Singh (https://github.com/gswebspace)</dc:title>
          </cc:Agent>
        </dc:contributor>
      </cc:Work>
      <cc:License
         rdf:about="http://creativecommons.org/licenses/by-sa/4.0/">
        <cc:permits
           rdf:resource="http://creativecommons.org/ns#Reproduction" />
        <cc:permits
           rdf:resource="http://creativecommons.org/ns#Distribution" />
        <cc:requires
           rdf:resource="http://creativecommons.org/ns#Notice" />
        <cc:requires
           rdf:resource="http://creativecommons.org/ns#Attribution" />
        <cc:permits
           rdf:resource="http://creativecommons.org/ns#DerivativeWorks" />
        <cc:requires
           rdf:resource="http://creativecommons.org/ns#ShareAlike" />
      </cc:License>
    </rdf:RDF>
  </metadata>
  <text
     xml:space="preserve"
     style="font-size:12.2365px;fill:#ffffff;fill-opacity:1;stroke-width:0.305914"
     x="15.118107"
     y="89.090187"
     id="text60"><tspan
       id="tspan60"
       style="font-style:normal;font-variant:normal;font-weight:normal;font-stretch:normal;font-size:12.2365px;font-family:ClarendonWideW01-Regular;-inkscape-font-specification:ClarendonWideW01-Regular;fill:#ffffff;fill-opacity:1;stroke-width:0.305914"
       x="15.118107"
       y="89.090187">RustDelhi</tspan></text>
</svg>
