<svg width="725" height="281" viewBox="0 0 725 281" fill="none" xmlns="http://www.w3.org/2000/svg">
<path d="M402.55 175.8C402.65 176.4 402.7 177 402.7 177.6C402.8 178.1 402.85 178.7 402.85 179.4C402.85 180.6 402.5 181.7 401.8 182.7C401.5 183.2 401.1 183.7 400.6 184.2C400.1 184.6 399.5 184.95 398.8 185.25C396.3 186.65 393.65 187.15 390.85 186.75C389.45 186.35 388.2 185.7 387.1 184.8C386.9 184.6 386.75 184.5 386.65 184.5C386.55 184.4 386.45 184.25 386.35 184.05C386.25 183.95 386.15 183.85 386.05 183.75C385.95 183.55 385.8 183.4 385.6 183.3C385.1 182.8 384.7 182.35 384.4 181.95C384.1 181.45 383.8 180.95 383.5 180.45C383.3 179.95 383.05 179.5 382.75 179.1C382.55 178.6 382.3 178.1 382 177.6C381.8 177.2 381.6 176.85 381.4 176.55C381.2 176.15 381.05 175.75 380.95 175.35C380.55 174.45 380.3 173.65 380.2 172.95L377.05 165.6C370.15 165.6 363.25 165.65 356.35 165.75C349.55 165.75 342.7 165.7 335.8 165.6L332.65 172.95C332.45 173.35 332.3 173.75 332.2 174.15C332.2 174.55 332.1 174.95 331.9 175.35C331.7 175.75 331.5 176.15 331.3 176.55C331.2 176.85 331.05 177.2 330.85 177.6C330.55 178.1 330.25 178.6 329.95 179.1C329.75 179.5 329.5 179.95 329.2 180.45C329 180.95 328.75 181.45 328.45 181.95C328.15 182.35 327.75 182.8 327.25 183.3C327.05 183.4 326.9 183.55 326.8 183.75C326.7 183.85 326.6 183.95 326.5 184.05C326.4 184.25 326.3 184.4 326.2 184.5C326.1 184.5 325.95 184.6 325.75 184.8C324.65 185.7 323.4 186.35 322 186.75C319.2 187.15 316.55 186.65 314.05 185.25C313.35 184.95 312.75 184.6 312.25 184.2C311.75 183.7 311.35 183.2 311.05 182.7C310.35 181.7 310 180.6 310 179.4C310 178.7 310 178.1 310 177.6C310.1 177 310.2 176.4 310.3 175.8C310.5 174.9 310.75 174 311.05 173.1C311.35 172.2 311.5 171.75 311.5 171.75L342.7 94.95L343.6 92.55C343.8 91.95 344.05 91.4 344.35 90.9C344.65 90.4 344.9 89.8 345.1 89.1C345.6 87.8 346.15 86.65 346.75 85.65C347.05 85.05 347.4 84.5 347.8 84C348.2 83.5 348.6 83 349 82.5C349.6 81.7 350.45 81.05 351.55 80.55C352.95 80.05 354.55 79.8 356.35 79.8C358.25 79.8 359.9 80.05 361.3 80.55C362.4 81.05 363.25 81.7 363.85 82.5C364.55 83.4 365.3 84.45 366.1 85.65C366.7 86.65 367.25 87.8 367.75 89.1C367.95 89.8 368.2 90.4 368.5 90.9C368.8 91.4 369.05 91.95 369.25 92.55L370.15 94.95L401.35 171.75C401.35 171.75 401.5 172.2 401.8 173.1C402.1 174 402.35 174.9 402.55 175.8ZM367 139.05C365.7 136.15 364.35 133.15 362.95 130.05C361.65 126.95 360.25 123.8 358.75 120.6C358.35 119.7 357.95 118.8 357.55 117.9C357.15 116.9 356.75 115.95 356.35 115.05C356.05 115.95 355.7 116.9 355.3 117.9C354.9 118.8 354.5 119.7 354.1 120.6C352.6 123.8 351.15 126.95 349.75 130.05C348.45 133.15 347.15 136.15 345.85 139.05L343.15 145.65H369.7L367 139.05ZM484.183 174.6C484.383 175.1 484.483 175.85 484.483 176.85C484.483 177.75 484.483 178.5 484.483 179.1C484.483 179.9 484.333 180.65 484.033 181.35C483.733 182.05 483.333 182.7 482.833 183.3C481.933 184.5 480.633 185.4 478.933 186C476.533 186.8 474.283 187.2 472.183 187.2C471.083 187.3 469.933 187.35 468.733 187.35C467.533 187.35 466.333 187.45 465.133 187.65H464.533C456.833 187.75 448.883 187.75 440.683 187.65C438.683 187.55 436.433 187.55 433.933 187.65C431.433 187.85 428.983 187.8 426.583 187.5C424.183 187.3 421.983 186.75 419.983 185.85C418.083 184.85 416.733 183.3 415.933 181.2C415.733 180.7 415.583 180.25 415.483 179.85C415.383 179.35 415.333 178.85 415.333 178.35C414.933 174.95 414.783 171.6 414.883 168.3C414.983 165 415.033 161.75 415.033 158.55L415.333 136.8V116.7C415.333 113.1 415.333 109.9 415.333 107.1C415.433 104.3 415.533 101.2 415.633 97.8V97.05C415.733 96.05 415.783 95.05 415.783 94.05C415.883 93.05 415.933 92.05 415.933 91.05C416.133 88.75 416.683 86.8 417.583 85.2C418.183 83.7 419.233 82.5 420.733 81.6C422.033 80.7 423.583 80.25 425.383 80.25C426.083 80.25 426.733 80.3 427.333 80.4C428.033 80.4 428.683 80.45 429.283 80.55C429.883 80.65 430.433 80.85 430.933 81.15C431.533 81.45 432.133 81.85 432.733 82.35C433.333 83.05 433.883 83.9 434.383 84.9C434.783 86 435.033 87.1 435.133 88.2C435.233 88.9 435.333 89.55 435.433 90.15C435.533 90.75 435.583 91.35 435.583 91.95C435.383 92.55 435.283 93.15 435.283 93.75C435.283 94.35 435.283 94.9 435.283 95.4V98.1L434.683 168.75L464.383 169.05H471.433C472.033 169.05 472.683 169.1 473.383 169.2C474.083 169.2 474.783 169.25 475.483 169.35C476.283 169.45 476.983 169.55 477.583 169.65C478.183 169.75 478.783 169.9 479.383 170.1C480.483 170.4 481.383 170.9 482.083 171.6C483.183 172.6 483.883 173.6 484.183 174.6Z" fill="url(#paint0_linear_254_58)"/>
<path d="M431.88 229.79V233H418.92L418.89 212H422.55L422.52 229.79H431.88ZM455.257 233.3C452.637 233.3 450.557 232.51 449.017 230.93C447.477 229.33 446.707 226.95 446.707 223.79V212H450.337V223.58C450.337 225.26 450.677 226.72 451.357 227.96C452.037 229.2 453.337 229.82 455.257 229.82C457.117 229.82 458.397 229.2 459.097 227.96C459.797 226.72 460.147 225.26 460.147 223.58V212H463.717V223.79C463.717 226.95 462.947 229.33 461.407 230.93C459.887 232.51 457.837 233.3 455.257 233.3ZM488.395 233.24C486.415 233.24 484.705 232.76 483.265 231.8C481.825 230.82 480.725 229.51 479.965 227.87C479.225 226.23 478.855 224.41 478.855 222.41C478.855 220.39 479.225 218.56 479.965 216.92C480.725 215.28 481.825 213.98 483.265 213.02C484.705 212.06 486.415 211.58 488.395 211.58C490.815 211.58 492.805 212.27 494.365 213.65C495.925 215.03 496.945 216.85 497.425 219.11H493.885C493.565 217.83 492.925 216.79 491.965 215.99C491.005 215.17 489.835 214.76 488.455 214.76C486.555 214.76 485.115 215.46 484.135 216.86C483.155 218.24 482.665 220.08 482.665 222.38C482.665 224.68 483.155 226.53 484.135 227.93C485.135 229.33 486.575 230.03 488.455 230.03C489.775 230.03 490.895 229.66 491.815 228.92C492.735 228.16 493.375 227.2 493.735 226.04H497.275C496.775 228.18 495.755 229.92 494.215 231.26C492.675 232.58 490.735 233.24 488.395 233.24ZM512.428 212H516.028V220.79H516.178L523.858 212H528.088L520.168 220.97L528.418 233H524.278L517.918 223.49L516.028 225.56V233H512.428V212ZM543.736 212H547.936L557.386 227.33H557.476V212H561.076V233.03H556.876L547.456 218.03H547.336V233.03H543.736V212ZM585.889 233.24C583.849 233.24 582.109 232.77 580.669 231.83C579.229 230.89 578.139 229.61 577.399 227.99C576.659 226.35 576.289 224.51 576.289 222.47C576.289 220.43 576.659 218.59 577.399 216.95C578.139 215.29 579.229 213.98 580.669 213.02C582.129 212.06 583.869 211.58 585.889 211.58C587.889 211.58 589.609 212.06 591.049 213.02C592.489 213.98 593.579 215.28 594.319 216.92C595.059 218.56 595.429 220.41 595.429 222.47C595.429 224.51 595.059 226.35 594.319 227.99C593.579 229.61 592.489 230.89 591.049 231.83C589.609 232.77 587.889 233.24 585.889 233.24ZM585.889 229.94C587.669 229.94 589.059 229.24 590.059 227.84C591.059 226.44 591.559 224.63 591.559 222.41C591.559 220.99 591.339 219.71 590.899 218.57C590.459 217.43 589.809 216.53 588.949 215.87C588.109 215.19 587.089 214.85 585.889 214.85C584.689 214.85 583.659 215.19 582.799 215.87C581.939 216.53 581.279 217.44 580.819 218.6C580.379 219.74 580.159 221.02 580.159 222.44C580.159 223.86 580.379 225.14 580.819 226.28C581.259 227.4 581.909 228.29 582.769 228.95C583.629 229.61 584.669 229.94 585.889 229.94ZM608.51 212H612.17L616.13 228.35H616.31L621.47 212H624.68L629.81 228.35H629.99L633.98 212H637.64L632.15 233.03H627.68L623.15 218.48H622.97L618.47 233.03H614L608.51 212Z" fill="#FF9404"/>
<path d="M626.55 175.8C626.65 176.4 626.7 177 626.7 177.6C626.8 178.1 626.85 178.7 626.85 179.4C626.85 180.6 626.5 181.7 625.8 182.7C625.5 183.2 625.1 183.7 624.6 184.2C624.1 184.6 623.5 184.95 622.8 185.25C620.3 186.65 617.65 187.15 614.85 186.75C613.45 186.35 612.2 185.7 611.1 184.8C610.9 184.6 610.75 184.5 610.65 184.5C610.55 184.4 610.45 184.25 610.35 184.05C610.25 183.95 610.15 183.85 610.05 183.75C609.95 183.55 609.8 183.4 609.6 183.3C609.1 182.8 608.7 182.35 608.4 181.95C608.1 181.45 607.8 180.95 607.5 180.45C607.3 179.95 607.05 179.5 606.75 179.1C606.55 178.6 606.3 178.1 606 177.6C605.8 177.2 605.6 176.85 605.4 176.55C605.2 176.15 605.05 175.75 604.95 175.35C604.55 174.45 604.3 173.65 604.2 172.95L601.05 165.6C594.15 165.6 587.25 165.65 580.35 165.75C573.55 165.75 566.7 165.7 559.8 165.6L556.65 172.95C556.45 173.35 556.3 173.75 556.2 174.15C556.2 174.55 556.1 174.95 555.9 175.35C555.7 175.75 555.5 176.15 555.3 176.55C555.2 176.85 555.05 177.2 554.85 177.6C554.55 178.1 554.25 178.6 553.95 179.1C553.75 179.5 553.5 179.95 553.2 180.45C553 180.95 552.75 181.45 552.45 181.95C552.15 182.35 551.75 182.8 551.25 183.3C551.05 183.4 550.9 183.55 550.8 183.75C550.7 183.85 550.6 183.95 550.5 184.05C550.4 184.25 550.3 184.4 550.2 184.5C550.1 184.5 549.95 184.6 549.75 184.8C548.65 185.7 547.4 186.35 546 186.75C543.2 187.15 540.55 186.65 538.05 185.25C537.35 184.95 536.75 184.6 536.25 184.2C535.75 183.7 535.35 183.2 535.05 182.7C534.35 181.7 534 180.6 534 179.4C534 178.7 534 178.1 534 177.6C534.1 177 534.2 176.4 534.3 175.8C534.5 174.9 534.75 174 535.05 173.1C535.35 172.2 535.5 171.75 535.5 171.75L566.7 94.95L567.6 92.55C567.8 91.95 568.05 91.4 568.35 90.9C568.65 90.4 568.9 89.8 569.1 89.1C569.6 87.8 570.15 86.65 570.75 85.65C571.05 85.05 571.4 84.5 571.8 84C572.2 83.5 572.6 83 573 82.5C573.6 81.7 574.45 81.05 575.55 80.55C576.95 80.05 578.55 79.8 580.35 79.8C582.25 79.8 583.9 80.05 585.3 80.55C586.4 81.05 587.25 81.7 587.85 82.5C588.55 83.4 589.3 84.45 590.1 85.65C590.7 86.65 591.25 87.8 591.75 89.1C591.95 89.8 592.2 90.4 592.5 90.9C592.8 91.4 593.05 91.95 593.25 92.55L594.15 94.95L625.35 171.75C625.35 171.75 625.5 172.2 625.8 173.1C626.1 174 626.35 174.9 626.55 175.8ZM591 139.05C589.7 136.15 588.35 133.15 586.95 130.05C585.65 126.95 584.25 123.8 582.75 120.6C582.35 119.7 581.95 118.8 581.55 117.9C581.15 116.9 580.75 115.95 580.35 115.05C580.05 115.95 579.7 116.9 579.3 117.9C578.9 118.8 578.5 119.7 578.1 120.6C576.6 123.8 575.15 126.95 573.75 130.05C572.45 133.15 571.15 136.15 569.85 139.05L567.15 145.65H593.7L591 139.05ZM716.583 142.35C717.083 143.75 717.433 145.35 717.633 147.15C717.933 148.85 718.083 150.6 718.083 152.4C718.083 154.2 717.933 156 717.633 157.8C717.433 159.5 717.133 161 716.733 162.3C715.133 167.9 711.933 172.6 707.133 176.4C702.333 180.1 696.833 182.8 690.633 184.5C684.533 186.2 678.183 186.8 671.583 186.3C665.083 185.8 659.283 184.15 654.183 181.35C650.983 179.55 648.233 177.35 645.933 174.75C643.633 172.15 641.683 169.25 640.083 166.05C639.483 164.95 639.083 163.7 638.883 162.3C638.783 160.8 638.933 159.4 639.333 158.1C639.733 156.7 640.383 155.5 641.283 154.5C642.183 153.4 643.433 152.65 645.033 152.25C646.033 152.05 647.133 151.95 648.333 151.95C649.633 151.95 650.883 152.15 652.083 152.55C653.283 152.85 654.383 153.4 655.383 154.2C656.383 154.9 657.183 155.9 657.783 157.2C658.883 159.3 660.433 161.25 662.433 163.05C664.533 164.75 666.733 166.15 669.033 167.25C672.333 168.35 675.633 168.8 678.933 168.6C682.333 168.4 685.383 167.65 688.083 166.35C690.883 165.05 693.133 163.3 694.833 161.1C696.533 158.8 697.383 156.2 697.383 153.3C697.383 150.9 697.033 148.95 696.333 147.45C695.633 145.85 694.633 144.55 693.333 143.55C692.133 142.45 690.633 141.55 688.833 140.85C687.133 140.15 685.233 139.55 683.133 139.05C680.733 138.55 678.283 138.2 675.783 138C673.383 137.8 670.933 137.55 668.433 137.25C665.933 136.95 663.483 136.55 661.083 136.05C658.683 135.55 656.333 134.8 654.033 133.8C649.433 131.9 645.933 129 643.533 125.1C641.133 121.2 639.683 117 639.183 112.5C638.783 108 639.333 103.55 640.833 99.15C642.333 94.65 644.733 90.8 648.033 87.6C651.233 84.7 655.033 82.65 659.433 81.45C663.933 80.15 668.883 79.4 674.283 79.2C677.283 79.1 680.283 79.2 683.283 79.5C686.383 79.8 689.333 80.3 692.133 81C695.033 81.7 697.683 82.6 700.083 83.7C702.583 84.8 704.733 86.1 706.533 87.6C707.833 88.6 709.133 89.95 710.433 91.65C711.733 93.25 712.733 95 713.433 96.9C714.133 98.7 714.333 100.45 714.033 102.15C713.833 103.85 712.783 105.3 710.883 106.5C709.283 107.5 707.733 107.95 706.233 107.85C704.833 107.65 703.483 107.2 702.183 106.5C700.883 105.7 699.633 104.8 698.433 103.8C697.233 102.8 696.133 101.9 695.133 101.1C692.433 99.1 689.083 97.75 685.083 97.05C681.083 96.35 677.333 96.2 673.833 96.6C671.633 96.9 669.583 97.4 667.683 98.1C665.783 98.8 664.133 99.75 662.733 100.95C661.433 102.15 660.383 103.65 659.583 105.45C658.883 107.15 658.633 109.1 658.833 111.3C658.933 112.9 659.383 114.25 660.183 115.35C661.083 116.45 662.133 117.35 663.333 118.05C664.633 118.75 666.033 119.3 667.533 119.7C669.033 120.1 670.533 120.4 672.033 120.6C676.533 121.2 681.033 121.65 685.533 121.95C690.033 122.25 694.433 123.25 698.733 124.95C703.133 126.65 706.883 128.95 709.983 131.85C713.083 134.75 715.283 138.25 716.583 142.35Z" fill="url(#paint1_linear_254_58)"/>
<path d="M527.936 140.915V151.469C527.936 153.345 526.837 153.667 525.738 153.521C524.639 153.374 523.336 152.592 522.563 152.202C521.586 151.615 521.342 149.905 521.342 149.124V139.596C521.342 138.072 522.197 137.096 523.296 137.251C526.593 137.717 527.936 139.596 527.936 140.915Z" fill="url(#paint2_linear_254_58)"/>
<path d="M517.435 150.443V143.7C517.435 141.121 515.969 139.01 515.237 138.277C514.358 137.456 513.649 138.277 513.649 138.277C512.184 140.036 511.207 141.355 511.207 143.7V148.537C511.207 150.531 513.08 151.322 514.016 151.469C516.58 151.87 517.435 151.469 517.435 150.443Z" fill="url(#paint3_linear_254_58)"/>
<path d="M500.584 150.443V143.7C500.584 141.121 502.05 139.01 502.782 138.277C503.661 137.456 504.37 138.277 504.37 138.277C505.835 140.036 506.812 141.355 506.812 143.7V148.537C506.812 150.531 504.939 151.322 504.003 151.469C501.439 151.87 500.584 151.469 500.584 150.443Z" fill="url(#paint4_linear_254_58)"/>
<path d="M490.083 140.915V151.469C490.083 153.345 491.182 153.667 492.281 153.521C493.38 153.374 494.683 152.592 495.456 152.202C496.433 151.615 496.677 149.905 496.677 149.124V139.596C496.677 138.072 495.822 137.096 494.723 137.251C491.427 137.717 490.083 139.596 490.083 140.915Z" fill="url(#paint5_linear_254_58)"/>
<path d="M529.157 129.922C509.986 122.74 495.985 127.968 489.351 129.922C487.031 130.802 486.634 133.44 487.275 134.466C488.74 136.811 490.205 136.074 491.915 135.492C508.277 129.922 520.325 133.88 526.348 135.492C529.157 136.079 530.256 135.492 530.866 134.026C531.452 131.447 529.971 130.216 529.157 129.922Z" fill="url(#paint6_linear_254_58)"/>
<path d="M529.157 156.892C509.986 149.71 495.985 154.938 489.351 156.892C487.031 157.771 486.634 160.41 487.275 161.436C488.74 163.781 490.205 163.044 491.915 162.462C508.277 156.892 520.325 160.849 526.348 162.462C529.157 163.048 530.256 162.462 530.866 160.996C531.452 158.416 529.971 157.185 529.157 156.892Z" fill="url(#paint7_linear_254_58)"/>
<path d="M527.936 167.299V183.568C527.936 186.031 526.145 186.158 525.249 185.913C522.417 184.858 521.953 182.347 522.075 181.223V167.299C522.075 165.071 522.929 164.367 524.028 164.367C526.177 164.367 527.936 166.273 527.936 167.299Z" fill="url(#paint8_linear_254_58)"/>
<path d="M490.799 167.299V183.568C490.799 186.031 492.589 186.158 493.485 185.913C496.318 184.858 496.782 182.347 496.66 181.223V167.299C496.66 165.071 495.805 164.367 494.706 164.367C492.557 164.367 490.799 166.273 490.799 167.299Z" fill="url(#paint9_linear_254_58)"/>
<path d="M527.692 123.62C528.302 104.712 519.795 94.8426 515.847 90.2011C511.354 85.628 508.887 75.4949 508.643 71C508.643 78.7391 504.777 87.0253 502.416 90.2011C497.043 96.064 493.869 103.637 492.77 106.617C491.207 110.604 490.653 119.955 490.694 124.499C490.694 126.844 491.915 127.259 493.624 126.551C497.165 125.086 497.043 122.74 497.043 122.74C497.043 113.711 498.753 103.1 507.544 94.5983V110.721C507.544 112.363 506.445 113.213 506.445 113.213C505.224 114.093 505.021 117.366 506.445 118.929C507.87 120.493 510.331 120.102 511.574 118.929C512.817 117.757 512.673 114.093 511.574 113.213C510.475 112.334 510.353 111.308 510.353 110.721V94.5983C521.953 105.738 522.034 117.61 521.342 122.74C521.026 125.086 523.54 126.112 525.372 126.112C527.203 126.112 527.692 124.353 527.692 123.62Z" fill="url(#paint10_linear_254_58)"/>
<circle cx="140.5" cy="140.5" r="134.5" stroke="url(#paint11_linear_254_58)" stroke-width="12"/>
<path fill-rule="evenodd" clip-rule="evenodd" d="M141 264C208.931 264 264 208.931 264 141C264 73.069 208.931 18 141 18C73.069 18 18 73.069 18 141C18 208.931 73.069 264 141 264ZM98.5 99.6701C98.5 58.5 122 49 140 49C158 49 183 61 183 99.6701C183 109.5 184.954 114.5 191 120.083C213.894 141.225 230 169.658 230 182.78C230 192.987 213.457 190.314 205.185 182.78C205.185 209.39 177.45 236 146.067 236C91.7653 236 77.9467 200.52 77.4601 182.78C52.4743 194.445 50.7752 182.437 52.4743 176.583C57.0241 160.909 77.1464 132.674 90.0619 120.083C97.1662 113.157 98.5 108.054 98.5 99.6701Z" fill="url(#paint12_linear_254_58)"/>
<path d="M92 163C92 167.418 95.5817 171 100 171C104.418 171 108 167.418 108 163C108 158.582 104.418 155 100 155C95.5817 155 92 158.582 92 163ZM121.986 170.916L120.488 170.849L120.486 170.882V170.916H121.986ZM120.486 232C120.486 232.828 121.158 233.5 121.986 233.5C122.815 233.5 123.486 232.828 123.486 232H120.486ZM100 164.5H118.251V161.5H100V164.5ZM118.251 164.5C118.85 164.5 119.47 164.928 119.963 166.435C120.428 167.854 120.542 169.637 120.488 170.849L123.485 170.982C123.548 169.556 123.43 167.381 122.815 165.502C122.228 163.71 120.923 161.5 118.251 161.5V164.5ZM120.486 170.916V232H123.486V170.916H120.486Z" fill="url(#paint13_linear_254_58)"/>
<path d="M171 139C171 143.418 167.418 147 163 147C158.582 147 155 143.418 155 139C155 134.582 158.582 131 163 131C167.418 131 171 134.582 171 139ZM141.014 150.013L142.513 149.965L142.514 149.989V150.013H141.014ZM142.514 235C142.514 235.828 141.842 236.5 141.014 236.5C140.185 236.5 139.514 235.828 139.514 235H142.514ZM163 140.5H144.749V137.5H163V140.5ZM144.749 140.5C144.592 140.5 144.348 140.556 144.005 141.054C143.645 141.578 143.323 142.403 143.071 143.473C142.572 145.594 142.457 148.205 142.513 149.965L139.515 150.061C139.453 148.15 139.57 145.254 140.151 142.786C140.439 141.563 140.868 140.323 141.533 139.355C142.216 138.362 143.271 137.5 144.749 137.5V140.5ZM142.514 150.013V235H139.514V150.013H142.514Z" fill="url(#paint14_linear_254_58)"/>
<path d="M190 177C190 181.418 186.418 185 182 185C177.582 185 174 181.418 174 177C174 172.582 177.582 169 182 169C186.418 169 190 172.582 190 177ZM160.014 183.654L161.512 183.574L161.514 183.614V183.654H160.014ZM161.514 235C161.514 235.828 160.842 236.5 160.014 236.5C159.185 236.5 158.514 235.828 158.514 235H161.514ZM182 178.5H163.749V175.5H182V178.5ZM163.749 178.5C162.999 178.5 162.44 178.932 162.009 180.039C161.572 181.162 161.46 182.595 161.512 183.574L158.516 183.733C158.45 182.494 158.571 180.6 159.213 178.951C159.861 177.286 161.228 175.5 163.749 175.5V178.5ZM161.514 183.654V235H158.514V183.654H161.514Z" fill="url(#paint15_linear_254_58)"/>
<defs>
<linearGradient id="paint0_linear_254_58" x1="397.5" y1="47" x2="397.5" y2="235" gradientUnits="userSpaceOnUse">
<stop stop-color="#959595"/>
<stop offset="1"/>
</linearGradient>
<linearGradient id="paint1_linear_254_58" x1="626.5" y1="47" x2="626.5" y2="235" gradientUnits="userSpaceOnUse">
<stop stop-color="#959595"/>
<stop offset="1"/>
</linearGradient>
<linearGradient id="paint2_linear_254_58" x1="509" y1="71" x2="509" y2="186" gradientUnits="userSpaceOnUse">
<stop stop-color="#CF4600"/>
<stop offset="1" stop-color="#FFC300"/>
</linearGradient>
<linearGradient id="paint3_linear_254_58" x1="509" y1="71" x2="509" y2="186" gradientUnits="userSpaceOnUse">
<stop stop-color="#CF4600"/>
<stop offset="1" stop-color="#FFC300"/>
</linearGradient>
<linearGradient id="paint4_linear_254_58" x1="509" y1="71" x2="509" y2="186" gradientUnits="userSpaceOnUse">
<stop stop-color="#CF4600"/>
<stop offset="1" stop-color="#FFC300"/>
</linearGradient>
<linearGradient id="paint5_linear_254_58" x1="509" y1="71" x2="509" y2="186" gradientUnits="userSpaceOnUse">
<stop stop-color="#CF4600"/>
<stop offset="1" stop-color="#FFC300"/>
</linearGradient>
<linearGradient id="paint6_linear_254_58" x1="509" y1="71" x2="509" y2="186" gradientUnits="userSpaceOnUse">
<stop stop-color="#CF4600"/>
<stop offset="1" stop-color="#FFC300"/>
</linearGradient>
<linearGradient id="paint7_linear_254_58" x1="509" y1="71" x2="509" y2="186" gradientUnits="userSpaceOnUse">
<stop stop-color="#CF4600"/>
<stop offset="1" stop-color="#FFC300"/>
</linearGradient>
<linearGradient id="paint8_linear_254_58" x1="509" y1="71" x2="509" y2="186" gradientUnits="userSpaceOnUse">
<stop stop-color="#CF4600"/>
<stop offset="1" stop-color="#FFC300"/>
</linearGradient>
<linearGradient id="paint9_linear_254_58" x1="509" y1="71" x2="509" y2="186" gradientUnits="userSpaceOnUse">
<stop stop-color="#CF4600"/>
<stop offset="1" stop-color="#FFC300"/>
</linearGradient>
<linearGradient id="paint10_linear_254_58" x1="509" y1="71" x2="509" y2="186" gradientUnits="userSpaceOnUse">
<stop stop-color="#CF4600"/>
<stop offset="1" stop-color="#FFC300"/>
</linearGradient>
<linearGradient id="paint11_linear_254_58" x1="281" y1="141" x2="-5.86204e-06" y2="141" gradientUnits="userSpaceOnUse">
<stop stop-color="#FF5C00"/>
<stop offset="1" stop-color="#FFC908"/>
</linearGradient>
<linearGradient id="paint12_linear_254_58" x1="264" y1="141" x2="18" y2="141" gradientUnits="userSpaceOnUse">
<stop stop-color="#FF5C00"/>
<stop offset="1" stop-color="#FFC908"/>
</linearGradient>
<linearGradient id="paint13_linear_254_58" x1="113.829" y1="192.333" x2="93.2419" y2="192.407" gradientUnits="userSpaceOnUse">
<stop stop-color="#FF8A00"/>
<stop offset="1" stop-color="#FFAB08"/>
</linearGradient>
<linearGradient id="paint14_linear_254_58" x1="149.171" y1="179.812" x2="169.758" y2="179.865" gradientUnits="userSpaceOnUse">
<stop stop-color="#FF8A00"/>
<stop offset="1" stop-color="#FF8A00"/>
</linearGradient>
<linearGradient id="paint15_linear_254_58" x1="168.171" y1="201.657" x2="188.758" y2="201.745" gradientUnits="userSpaceOnUse">
<stop stop-color="#FF8A00"/>
<stop offset="1" stop-color="#FF5C00"/>
</linearGradient>
</defs>
</svg>
