<svg version="1.1" id="layer" xmlns="http://www.w3.org/2000/svg" xmlns:xlink="http://www.w3.org/1999/xlink" x="0px"
    y="0px" style="enable-background:new 0 0 652 652;" xml:space="preserve" viewBox="20.88 234 600.12 176.5">
    <style type="text/css">
        .st0 {
            fill: #d0d0d0;
        }

        .st1 {
            fill-rule: evenodd;
            clip-rule: evenodd;
            fill: #0053ac;
        }

        .st2 {
            fill-rule: evenodd;
            clip-rule: evenodd;
            fill: #FFFFFF;
        }

        .st3 {
            fill-rule: evenodd;
            clip-rule: evenodd;
            fill: #FFCA04;
        }

        .st4 {
            clip-path: url(#SVGID_2_);
            fill-rule: evenodd;
            clip-rule: evenodd;
            fill: #0053ac;
        }

        .st5 {
            fill: #A7A9AB;
        }
    </style>
    <path class="st0"
        d="M220.7,359.5v-2.8h16.9v2.8c-2.5,0.1-4.2,0.9-5.3,2.3c-1,1.4-1.5,3.7-1.5,7v20.6c0,7-1.5,12.2-4.4,15.5 &#9;c-2.9,3.3-7.5,5-13.6,5c-6.1,0-10.7-1.6-13.8-4.7c-3.1-3.1-4.7-7.8-4.7-13.9v-25.8c0-2.5-0.4-4.2-1.1-5c-0.8-0.8-2.3-1.2-4.6-1.2 &#9;h-1.2v-2.5h20.9v2.5h-1.3c-2.3,0-3.8,0.4-4.5,1.2c-0.7,0.8-1.1,2.5-1.1,5.3v26.7c0,4.8,1.1,8.3,3.2,10.7c2.1,2.4,5.3,3.5,9.7,3.5 &#9;c4.5,0,7.8-1.3,10-4c2.2-2.7,3.3-6.8,3.3-12.2v-21.7c0-3.3-0.5-5.6-1.5-7C225,360.4,223.2,359.6,220.7,359.5 M251.3,356.6l28.4,40.4 &#9;v-28.4c0-3.4-0.6-5.7-1.7-7.1c-1.1-1.4-3.1-2.1-5.8-2.1v-2.8h18.3v2.8c-2.7,0-4.7,0.8-5.8,2.1c-1.2,1.4-1.7,3.7-1.7,7.1v41.1h-2.5 &#9;l-30.8-44.2v31c0,3.4,0.6,5.7,1.7,7.1c1.1,1.4,3.1,2.1,5.8,2.1v2.8h-18.3l0-2.8c2.7,0,4.7-0.8,5.8-2.1c1.1-1.4,1.7-3.7,1.7-7.1 &#9;v-34.3c-0.8-0.9-1.9-1.6-3.1-2.1c-1.2-0.5-2.7-0.8-4.4-0.9l0-2.6H251.3z M313.3,356.6v2.6h-1.4c-2.3,0-3.8,0.4-4.5,1.1 &#9;c-0.7,0.8-1.1,2.6-1.1,5.3v33.7c0,2.9,0.4,4.7,1.1,5.5c0.7,0.8,2.3,1.2,4.6,1.2h1.2v2.5h-20.8v-2.5h0.9c2.4,0,4-0.4,4.8-1.1 &#9;c0.8-0.8,1.2-2.5,1.2-5.3v-34c0-2.9-0.4-4.8-1.1-5.5c-0.7-0.7-2.3-1-4.7-1h-1v-2.6H313.3z M338.2,410.5l-14.9-43.2 &#9;c0-0.1-0.1-0.3-0.1-0.4c-1.7-4.8-4.3-7.4-7.8-7.7v-2.5h19.3v2.5c-2.2,0.1-3.8,0.4-4.6,0.8c-0.9,0.4-1.3,1-1.3,1.8 &#9;c0,0.3,0.1,0.7,0.2,1.3c0.1,0.6,0.4,1.4,0.7,2.2l11.5,33l10.8-32c0.2-0.6,0.4-1.2,0.5-1.7c0.1-0.5,0.1-1,0.1-1.5 &#9;c0-1.3-0.4-2.2-1.3-2.8c-0.9-0.6-2.3-0.9-4.4-1.1v-2.5h15.6v2.5c-1.7,0.1-3.1,0.6-4,1.5c-0.9,0.8-1.8,2.3-2.5,4.5l-15.7,45.3H338.2z &#9; M365.6,408.7v-2.5h1.2c2.3,0,3.8-0.4,4.6-1.2c0.7-0.8,1.1-2.6,1.1-5.4v-33.9c0-2.9-0.4-4.7-1.1-5.4c-0.7-0.7-2.3-1-4.8-1h-1v-2.6 &#9;H402l5.1,12.2l-2,0.8c-3.2-4.1-6.1-6.9-8.7-8.5c-2.6-1.5-5.8-2.3-9.5-2.3c-3,0-5,0.4-5.9,1.2c-1,0.8-1.4,2.4-1.4,4.8v15.3h3.6 &#9;c3.3,0,5.8-0.7,7.4-2c1.6-1.3,2.6-3.5,3.1-6.6h2.5v20.1h-2.5c-0.4-3.2-1.4-5.4-3-6.8c-1.6-1.4-4.1-2.1-7.5-2.1h-3.6v17.8 &#9;c0,2,0.4,3.3,1.3,4.1c0.9,0.7,2.5,1.1,4.7,1.1c4.5,0,8.5-0.9,11.9-2.8c3.5-1.9,6.6-4.8,9.4-8.8l2.1,0.7l-5,13.6H365.6z M447.1,408.7 &#9;l-13.9-25.3h-5.3v16.7c0,2.5,0.4,4.2,1.1,4.9c0.8,0.8,2.2,1.1,4.5,1.1h1.2v2.5H414v-2.5h1.2c2.3,0,3.8-0.4,4.6-1.2 &#9;c0.7-0.8,1.1-2.7,1.1-5.6v-34c0-2.6-0.4-4.3-1.1-5c-0.7-0.7-2.3-1.1-4.7-1.1H414v-2.6h20.7c6.5,0,11.4,1.2,14.7,3.5 &#9;c3.3,2.3,5,5.8,5,10.3c0,3.4-1.1,6.2-3.5,8.2c-2.3,2-5.9,3.5-10.7,4.3l9.5,16.7c1.5,2.7,2.9,4.4,4.2,5.2c1.2,0.8,2.9,1.2,5,1.2h0.5 &#9;v2.5H447.1z M427.9,380.7h5.8c4.6,0,7.8-0.8,9.9-2.5c2-1.6,3.1-4.3,3.1-8c0-3.8-0.9-6.7-2.8-8.5c-1.9-1.8-4.9-2.7-9-2.7 &#9;c-2.9,0-4.7,0.4-5.6,1.1c-0.9,0.7-1.3,2.4-1.3,5V380.7z M466.5,409.7l-5.2-13.9l2.4-0.9c2.9,3.9,6,6.9,9.1,9 &#9;c3.2,2.1,6.3,3.2,9.3,3.2c2.8,0,5.2-1,7.1-2.9c1.9-1.9,2.9-4.3,2.9-7.2c0-2.9-0.9-5.2-2.6-6.9c-1.8-1.7-5.4-3.3-10.8-5 &#9;c-0.3-0.1-0.8-0.2-1.5-0.4c-4.4-1.2-7.5-2.7-9.5-4.7c-1.4-1.4-2.5-3-3.2-4.8c-0.7-1.8-1.1-3.7-1.1-5.6c0-4,1.3-7.3,4-10 &#9;c2.6-2.7,6-4,9.9-4c1.6,0,3.3,0.3,5.2,0.9c1.9,0.6,3,0.9,3.4,0.9c0.7,0,1.4-0.1,2.2-0.4c0.8-0.3,1.8-0.6,2.8-1.1l4.9,13.1l-2.1,1.1 &#9;c-2.8-4.1-5.6-7.1-8.3-9.1c-2.7-2-5.3-3-8-3c-2.6,0-4.7,0.9-6.4,2.6c-1.7,1.8-2.5,4-2.5,6.6c0,1.5,0.3,2.8,0.8,3.9 &#9;c0.5,1.2,1.4,2.2,2.6,3.2c1.6,1.3,4.8,2.6,9.7,3.9c1.2,0.3,2.1,0.5,2.7,0.7c4.4,1.2,7.7,3.1,9.9,5.7c2.2,2.6,3.3,5.8,3.3,9.7 &#9;c0,4.3-1.4,7.9-4.2,10.9c-2.8,3-6.2,4.5-10.2,4.5c-2.3,0-4.7-0.4-7.1-1.3c-2.4-0.8-3.7-1.3-3.9-1.3c-0.5,0-1.2,0.2-2.1,0.6 &#9;C469,408.2,467.9,408.8,466.5,409.7 M522.7,356.6v2.6h-1.4c-2.3,0-3.8,0.4-4.5,1.1c-0.7,0.8-1.1,2.6-1.1,5.3v33.7 &#9;c0,2.9,0.4,4.7,1.1,5.5c0.7,0.8,2.3,1.2,4.6,1.2h1.2v2.5h-20.8v-2.5h0.9c2.4,0,4-0.4,4.8-1.1c0.8-0.8,1.2-2.5,1.2-5.3v-34 &#9;c0-2.9-0.4-4.8-1.1-5.5c-0.7-0.7-2.3-1-4.7-1h-1v-2.6H522.7z M567.9,356.6l4.3,12.5l-2.3,0.8c-3.6-4.7-6.5-7.7-8.5-9 &#9;c-2-1.4-4.2-2-6.5-2c-1.1,0-1.8,0.2-2.3,0.6c-0.4,0.4-0.6,1.1-0.6,2.1v38.2c0,2.6,0.4,4.3,1.1,5.1c0.8,0.8,2.3,1.2,4.6,1.2h1.3v2.5 &#9;h-20.9v-2.5h1.3c2.3,0,3.8-0.4,4.5-1.1c0.7-0.8,1.1-2.5,1.1-5.1v-38.3c0-1-0.2-1.7-0.6-2.1c-0.4-0.4-1.2-0.6-2.3-0.6 &#9;c-2.4,0-4.6,0.7-6.5,2c-2,1.4-4.8,4.4-8.5,9l-2.3-0.8l4.3-12.5H567.9z M591.2,387.4l-12.6-24.8c-0.7-1.3-1.4-2.2-2.2-2.7 &#9;c-0.8-0.4-2-0.7-3.6-0.8l0.1-2.5h18v2.5h-0.6c-1.7,0-2.9,0.1-3.7,0.4c-0.8,0.3-1.2,0.7-1.2,1.3c0,0.3,0.1,0.6,0.2,0.9 &#9;c0.1,0.4,0.4,1,0.9,1.8l10.2,19.5l9-17.8c0.3-0.6,0.5-1.1,0.6-1.6c0.1-0.5,0.2-1,0.2-1.4c0-1.1-0.4-1.9-1.3-2.4 &#9;c-0.9-0.5-2.3-0.8-4.1-0.8l0.1-2.5h15.1v2.5c-2.6,0.3-4.7,2-6.3,5c-0.1,0.3-0.3,0.5-0.3,0.7l-11.3,21.6v13.6c0,2.5,0.4,4.1,1.1,4.9 &#9;c0.8,0.8,2.3,1.2,4.6,1.2h1.3v2.5h-20.8v-2.5h1.3c2.2,0,3.7-0.4,4.4-1.1c0.7-0.8,1.1-2.4,1.1-5V387.4z" />
    <path class="st0"
        d="M212.5,297.4h30.3l-15.1-46.9L212.5,297.4 M186.4,338v-4.8c3.3-0.2,5.8-1.1,7.6-2.8c1.8-1.7,3.5-4.9,5.1-9.8 &#9;l26.2-80.4l10.8-3.5l29.3,86.9c0.6,2,1.3,3.6,2.1,4.9c0.8,1.3,1.7,2.3,2.7,3.1c0.7,0.5,1.5,0.8,2.6,1.1c1.1,0.3,2.7,0.4,4.8,0.5v4.8 &#9;h-36.5v-4.8h0.9c3.9,0,6.6-0.5,8.2-1.4c1.6-0.9,2.3-2.5,2.3-4.8c0-0.4-0.1-1-0.3-1.9c-0.2-0.8-0.5-1.8-0.9-2.9l-6.2-18.5h-34.7 &#9;l-4.6,15.4c-0.3,0.8-0.5,1.7-0.6,2.6c-0.2,0.9-0.2,1.9-0.2,2.9c0,3,0.8,5.1,2.3,6.6c1.5,1.4,3.9,2.1,7,2.1h1.4v4.8H186.4z &#9; M370.3,245.7L337,338h-3.7l-33.9-91.2v68.3c0,6.1,1,10.5,3,13.2c2,2.6,5.4,4.1,10,4.4l0.1,5.4h-32.2v-5.4c4.7-0.4,8.1-1.9,10.1-4.5 &#9;c2-2.6,3-7,3-13.1v-57.4c0-6.4-0.7-10.2-2-11.6c-1.3-1.4-4.1-2-8.3-2h-2.8v-5h28.4l29.5,78.9l28.9-78.9h29.6v5h-2.5 &#9;c-4.4,0-7.2,0.7-8.5,2.2c-1.3,1.5-2,5-2,10.8v64.1c0,5.1,0.7,8.4,2,9.9c1.4,1.5,4.2,2.2,8.4,2.2h2.5v4.8h-39.2v-4.8h2.3 &#9;c4.3,0,7.2-0.7,8.6-2.1c1.4-1.4,2-4.7,2-9.9V245.7z M443.2,239.1v5h-2.6c-4.4,0-7.3,0.7-8.6,2.2c-1.4,1.5-2,4.9-2,10.2v64 &#9;c0,5.4,0.7,8.9,2.2,10.4c1.4,1.5,4.3,2.3,8.7,2.3h2.4v4.8h-39.5v-4.8h1.7c4.6,0,7.6-0.7,9.1-2.1c1.5-1.4,2.2-4.8,2.2-10.1v-64.6 &#9;c0-5.6-0.7-9-2.1-10.4c-1.4-1.3-4.4-2-8.9-2h-2v-5H443.2z M529.2,239.1l8.1,23.8l-4.3,1.6c-6.9-8.9-12.3-14.6-16.1-17.1 &#9;c-3.8-2.6-7.9-3.8-12.4-3.8c-2.1,0-3.5,0.4-4.3,1.1c-0.8,0.7-1.2,2.1-1.2,4v72.6c0,4.9,0.7,8.2,2.1,9.7c1.4,1.5,4.3,2.2,8.7,2.2h2.5 &#9;v4.8h-39.7v-4.8h2.5c4.3,0,7.2-0.7,8.5-2.2c1.4-1.5,2.1-4.7,2.1-9.6v-72.8c0-2-0.4-3.3-1.2-4c-0.8-0.7-2.2-1.1-4.3-1.1 &#9;c-4.5,0-8.7,1.3-12.4,3.8c-3.8,2.6-9.1,8.3-16.1,17.1l-4.3-1.6l8.2-23.8H529.2z M573.4,297.6l-24-47.1c-1.4-2.5-2.8-4.2-4.2-5.1 &#9;c-1.5-0.8-3.7-1.3-6.8-1.5l0.1-4.8h34.2v4.8h-1.2c-3.2,0-5.5,0.3-7,0.8c-1.5,0.6-2.2,1.4-2.2,2.6c0,0.5,0.1,1.1,0.4,1.8 &#9;c0.3,0.7,0.8,1.9,1.7,3.4l19.4,37.1l17.1-33.9c0.5-1.1,0.9-2.1,1.2-3.1c0.3-1,0.4-1.9,0.4-2.7c0-2-0.8-3.5-2.5-4.5s-4.3-1.5-7.9-1.5 &#9;l0.1-4.8H621v4.8c-5,0.6-9,3.8-12,9.5c-0.3,0.6-0.5,1-0.6,1.3l-21.5,41.1v25.8c0,4.7,0.7,7.8,2.1,9.3c1.4,1.5,4.3,2.2,8.7,2.2h2.5 &#9;v4.8h-39.6v-4.8h2.5c4.2,0,7-0.7,8.4-2.1c1.4-1.4,2-4.6,2-9.6V297.6z" />
    <path class="st1"
        d="M94.2,407.2c18.2-7.5,30.6-13.3,39-17.8c12.7-6.7,23.5-14.9,29.2-28.6c3.4-8,5.1-17.6,4.9-29.1 &#9;c-0.1-27.1-0.2-54.1-0.4-81.2c-39.7-22-105.9-22-145.6,0c-0.1,27.1-0.2,54.1-0.4,81.2c-0.2,11.5,1.5,21.1,4.9,29.1 &#9;c5.8,13.6,16.6,21.9,29.2,28.6C63.6,393.9,76,399.7,94.2,407.2" />
    <path class="st2"
        d="M127.1,256.3l-4.7-9.2c-0.3-0.5-0.5-0.8-0.8-1c-0.3-0.2-0.7-0.3-1.3-0.3l0-0.9h6.6v0.9h-0.2 &#9;c-0.6,0-1.1,0.1-1.4,0.2c-0.3,0.1-0.4,0.3-0.4,0.5c0,0.1,0,0.2,0.1,0.3c0.1,0.1,0.2,0.4,0.3,0.7l3.8,7.2l3.3-6.6 &#9;c0.1-0.2,0.2-0.4,0.2-0.6c0.1-0.2,0.1-0.4,0.1-0.5c0-0.4-0.2-0.7-0.5-0.9c-0.3-0.2-0.8-0.3-1.5-0.3l0-0.9h5.6v0.9 &#9;c-1,0.1-1.7,0.7-2.3,1.9c-0.1,0.1-0.1,0.2-0.1,0.2l-4.2,8v5c0,0.9,0.1,1.5,0.4,1.8c0.3,0.3,0.8,0.4,1.7,0.4h0.5v0.9h-7.7v-0.9h0.5 &#9;c0.8,0,1.4-0.1,1.6-0.4c0.3-0.3,0.4-0.9,0.4-1.9V256.3 M118.5,244.9l1.6,4.6l-0.8,0.3c-1.3-1.7-2.4-2.8-3.1-3.3 &#9;c-0.7-0.5-1.5-0.7-2.4-0.7c-0.4,0-0.7,0.1-0.8,0.2c-0.2,0.1-0.2,0.4-0.2,0.8v14.1c0,1,0.1,1.6,0.4,1.9c0.3,0.3,0.8,0.4,1.7,0.4h0.5 &#9;v0.9h-7.7v-0.9h0.5c0.8,0,1.4-0.1,1.7-0.4c0.3-0.3,0.4-0.9,0.4-1.9v-14.1c0-0.4-0.1-0.6-0.2-0.8c-0.2-0.1-0.4-0.2-0.8-0.2 &#9;c-0.9,0-1.7,0.3-2.4,0.7c-0.7,0.5-1.8,1.6-3.1,3.3l-0.8-0.3l1.6-4.6H118.5z M101.8,244.9v1h-0.5c-0.9,0-1.4,0.1-1.7,0.4 &#9;c-0.3,0.3-0.4,0.9-0.4,2v12.5c0,1.1,0.1,1.7,0.4,2c0.3,0.3,0.8,0.5,1.7,0.5h0.5v0.9h-7.7v-0.9h0.3c0.9,0,1.5-0.1,1.8-0.4 &#9;c0.3-0.3,0.4-0.9,0.4-2v-12.6c0-1.1-0.1-1.8-0.4-2c-0.3-0.3-0.8-0.4-1.7-0.4h-0.4v-1H101.8z M87.7,246.2l-6.5,17.9h-0.7l-6.6-17.7 &#9;v13.3c0,1.2,0.2,2,0.6,2.6c0.4,0.5,1,0.8,1.9,0.9l0,1h-6.3v-1c0.9-0.1,1.6-0.4,2-0.9c0.4-0.5,0.6-1.4,0.6-2.5v-11.2 &#9;c0-1.2-0.1-2-0.4-2.3c-0.3-0.3-0.8-0.4-1.6-0.4h-0.5v-1h5.5l5.7,15.3l5.6-15.3h5.8v1h-0.5c-0.8,0-1.4,0.1-1.7,0.4 &#9;c-0.3,0.3-0.4,1-0.4,2.1v12.5c0,1,0.1,1.6,0.4,1.9c0.3,0.3,0.8,0.4,1.6,0.4h0.5v0.9h-7.6v-0.9h0.4c0.8,0,1.4-0.1,1.7-0.4 &#9;s0.4-0.9,0.4-1.9V246.2z M51.9,264.2v-0.9c0.6,0,1.1-0.2,1.5-0.5c0.3-0.3,0.7-1,1-1.9l5.1-15.6l2.1-0.7l5.7,16.9 &#9;c0.1,0.4,0.3,0.7,0.4,0.9c0.2,0.3,0.3,0.5,0.5,0.6c0.1,0.1,0.3,0.2,0.5,0.2c0.2,0,0.5,0.1,0.9,0.1v0.9h-7.1v-0.9h0.2 &#9;c0.7,0,1.3-0.1,1.6-0.3c0.3-0.2,0.5-0.5,0.5-0.9c0-0.1,0-0.2-0.1-0.4c0-0.2-0.1-0.4-0.2-0.6l-1.2-3.6h-6.7l-0.9,3 &#9;c-0.1,0.2-0.1,0.3-0.1,0.5c0,0.2,0,0.4,0,0.6c0,0.6,0.1,1,0.4,1.3c0.3,0.3,0.7,0.4,1.4,0.4h0.3v0.9H51.9z M57,256.3h5.9l-2.9-9.1 &#9;L57,256.3z" />
    <path class="st2"
        d="M131.5,273.7l-2.5-4.6c-0.1-0.2-0.3-0.4-0.4-0.5c-0.2-0.1-0.4-0.1-0.7-0.1l0-0.5h3.5v0.5h-0.1 &#9;c-0.3,0-0.6,0-0.7,0.1c-0.2,0.1-0.2,0.1-0.2,0.3c0,0,0,0.1,0,0.2c0,0.1,0.1,0.2,0.2,0.3l2,3.6l1.8-3.3c0.1-0.1,0.1-0.2,0.1-0.3 &#9;c0-0.1,0-0.2,0-0.3c0-0.2-0.1-0.3-0.3-0.4c-0.2-0.1-0.5-0.1-0.8-0.1l0-0.5h3v0.5c-0.5,0.1-0.9,0.4-1.2,0.9c0,0.1,0,0.1-0.1,0.1 &#9;l-2.2,4v2.5c0,0.5,0.1,0.8,0.2,0.9c0.2,0.1,0.4,0.2,0.9,0.2h0.3v0.5h-4.1v-0.5h0.3c0.4,0,0.7-0.1,0.9-0.2c0.1-0.1,0.2-0.4,0.2-0.9 &#9;V273.7 M126.9,267.9l0.8,2.3l-0.4,0.2c-0.7-0.9-1.3-1.4-1.7-1.7c-0.4-0.2-0.8-0.4-1.3-0.4c-0.2,0-0.4,0-0.4,0.1 &#9;c-0.1,0.1-0.1,0.2-0.1,0.4v7.1c0,0.5,0.1,0.8,0.2,0.9c0.1,0.1,0.4,0.2,0.9,0.2h0.3v0.5H121v-0.5h0.3c0.5,0,0.7-0.1,0.9-0.2 &#9;c0.1-0.1,0.2-0.5,0.2-0.9v-7.1c0-0.2,0-0.3-0.1-0.4c-0.1-0.1-0.2-0.1-0.4-0.1c-0.5,0-0.9,0.1-1.3,0.4c-0.4,0.3-0.9,0.8-1.7,1.7 &#9;l-0.5-0.2l0.8-2.3H126.9z M118,267.9v0.5h-0.3c-0.5,0-0.8,0.1-0.9,0.2c-0.1,0.1-0.2,0.5-0.2,1v6.2c0,0.5,0.1,0.9,0.2,1 &#9;c0.2,0.2,0.5,0.2,0.9,0.2h0.2v0.5h-4.1v-0.5h0.2c0.5,0,0.8-0.1,0.9-0.2c0.2-0.1,0.2-0.5,0.2-1v-6.3c0-0.5-0.1-0.9-0.2-1 &#9;c-0.1-0.1-0.5-0.2-0.9-0.2h-0.2v-0.5H118z M106.9,277.8l-1-2.6l0.5-0.2c0.6,0.7,1.2,1.3,1.8,1.7c0.6,0.4,1.2,0.6,1.8,0.6 &#9;c0.6,0,1-0.2,1.4-0.5c0.4-0.4,0.6-0.8,0.6-1.3c0-0.5-0.2-1-0.5-1.3c-0.3-0.3-1.1-0.6-2.1-0.9c-0.1,0-0.2,0-0.3-0.1 &#9;c-0.9-0.2-1.5-0.5-1.9-0.9c-0.3-0.3-0.5-0.6-0.6-0.9c-0.1-0.3-0.2-0.7-0.2-1c0-0.7,0.3-1.4,0.8-1.8c0.5-0.5,1.2-0.7,2-0.7 &#9;c0.3,0,0.6,0.1,1,0.2c0.4,0.1,0.6,0.2,0.7,0.2c0.1,0,0.3,0,0.4-0.1c0.2,0,0.3-0.1,0.5-0.2l1,2.4l-0.4,0.2c-0.6-0.8-1.1-1.3-1.6-1.7 &#9;c-0.5-0.4-1.1-0.6-1.6-0.6c-0.5,0-0.9,0.2-1.3,0.5c-0.3,0.3-0.5,0.7-0.5,1.2c0,0.3,0.1,0.5,0.2,0.7c0.1,0.2,0.3,0.4,0.5,0.6 &#9;c0.3,0.2,0.9,0.5,1.9,0.7c0.2,0.1,0.4,0.1,0.5,0.1c0.9,0.2,1.5,0.6,1.9,1.1c0.4,0.5,0.6,1.1,0.6,1.8c0,0.8-0.3,1.5-0.8,2 &#9;c-0.5,0.5-1.2,0.8-2,0.8c-0.5,0-0.9-0.1-1.4-0.2c-0.5-0.2-0.7-0.2-0.8-0.2c-0.1,0-0.2,0-0.4,0.1 &#9;C107.4,277.5,107.2,277.6,106.9,277.8 M99.3,272.4h1.1c0.9,0,1.5-0.2,1.9-0.5c0.4-0.3,0.6-0.8,0.6-1.5c0-0.7-0.2-1.2-0.6-1.6 &#9;c-0.4-0.3-1-0.5-1.8-0.5c-0.6,0-0.9,0.1-1.1,0.2c-0.2,0.1-0.3,0.5-0.3,0.9V272.4z M103.1,277.6l-2.7-4.7h-1.1v3.1 &#9;c0,0.5,0.1,0.8,0.2,0.9c0.2,0.1,0.4,0.2,0.9,0.2h0.2v0.5h-4.1v-0.5h0.2c0.5,0,0.8-0.1,0.9-0.2c0.1-0.1,0.2-0.5,0.2-1v-6.3 &#9;c0-0.5-0.1-0.8-0.2-0.9c-0.1-0.1-0.5-0.2-0.9-0.2h-0.2v-0.5h4.1c1.3,0,2.2,0.2,2.9,0.7c0.7,0.4,1,1.1,1,1.9c0,0.6-0.2,1.1-0.7,1.5 &#9;c-0.5,0.4-1.1,0.6-2.1,0.8l1.9,3.1c0.3,0.5,0.6,0.8,0.8,1c0.2,0.2,0.6,0.2,1,0.2h0.1v0.5H103.1z M87,277.6v-0.5h0.2 &#9;c0.5,0,0.8-0.1,0.9-0.2c0.1-0.1,0.2-0.5,0.2-1v-6.3c0-0.5-0.1-0.9-0.2-1c-0.1-0.1-0.5-0.2-0.9-0.2H87v-0.5h7.2l1,2.3l-0.4,0.1 &#9;c-0.6-0.8-1.2-1.3-1.7-1.6c-0.5-0.3-1.1-0.4-1.9-0.4c-0.6,0-1,0.1-1.2,0.2c-0.2,0.1-0.3,0.4-0.3,0.9v2.8h0.7c0.7,0,1.1-0.1,1.5-0.4 &#9;c0.3-0.2,0.5-0.6,0.6-1.2h0.5v3.7h-0.5c-0.1-0.6-0.3-1-0.6-1.3c-0.3-0.3-0.8-0.4-1.5-0.4h-0.7v3.3c0,0.4,0.1,0.6,0.3,0.8 &#9;c0.2,0.1,0.5,0.2,0.9,0.2c0.9,0,1.7-0.2,2.3-0.5c0.7-0.3,1.3-0.9,1.8-1.6l0.4,0.1l-1,2.5H87z M81.6,277.9l-2.9-8c0,0,0,0,0-0.1 &#9;c-0.3-0.9-0.9-1.4-1.5-1.4v-0.5h3.8v0.5c-0.4,0-0.7,0.1-0.9,0.1c-0.2,0.1-0.3,0.2-0.3,0.3c0,0,0,0.1,0,0.2c0,0.1,0.1,0.3,0.1,0.4 &#9;l2.3,6.1l2.1-5.9c0-0.1,0.1-0.2,0.1-0.3c0-0.1,0-0.2,0-0.3c0-0.2-0.1-0.4-0.3-0.5c-0.2-0.1-0.5-0.2-0.9-0.2v-0.5h3.1v0.5 &#9;c-0.3,0-0.6,0.1-0.8,0.3c-0.2,0.2-0.3,0.4-0.5,0.8l-3.1,8.4H81.6z M76.7,267.9v0.5h-0.3c-0.5,0-0.8,0.1-0.9,0.2 &#9;c-0.1,0.1-0.2,0.5-0.2,1v6.2c0,0.5,0.1,0.9,0.2,1c0.1,0.2,0.5,0.2,0.9,0.2h0.2v0.5h-4.1v-0.5h0.2c0.5,0,0.8-0.1,0.9-0.2 &#9;c0.2-0.1,0.2-0.5,0.2-1v-6.3c0-0.5-0.1-0.9-0.2-1c-0.1-0.1-0.5-0.2-0.9-0.2h-0.2v-0.5H76.7z M64.5,267.9l5.6,7.5v-5.3 &#9;c0-0.6-0.1-1.1-0.3-1.3c-0.2-0.3-0.6-0.4-1.1-0.4v-0.5h3.6v0.5c-0.5,0-0.9,0.1-1.1,0.4c-0.2,0.3-0.3,0.7-0.3,1.3v7.6h-0.5l-6.1-8.2 &#9;v5.7c0,0.6,0.1,1.1,0.3,1.3c0.2,0.3,0.6,0.4,1.1,0.4v0.5h-3.6l0-0.5c0.5,0,0.9-0.1,1.1-0.4c0.2-0.3,0.3-0.7,0.3-1.3V269 &#9;c-0.2-0.2-0.4-0.3-0.6-0.4c-0.2-0.1-0.5-0.2-0.9-0.2l0-0.5H64.5z M58.5,268.5V268h3.3v0.5c-0.5,0-0.8,0.2-1,0.4 &#9;c-0.2,0.3-0.3,0.7-0.3,1.3v3.8c0,1.3-0.3,2.3-0.9,2.9c-0.6,0.6-1.5,0.9-2.7,0.9c-1.2,0-2.1-0.3-2.7-0.9c-0.6-0.6-0.9-1.4-0.9-2.6 &#9;v-4.8c0-0.5-0.1-0.8-0.2-0.9c-0.1-0.1-0.4-0.2-0.9-0.2h-0.2V268H56v0.5h-0.3c-0.5,0-0.7,0.1-0.9,0.2c-0.1,0.1-0.2,0.5-0.2,1v5 &#9;c0,0.9,0.2,1.5,0.6,2c0.4,0.4,1.1,0.7,1.9,0.7c0.9,0,1.5-0.2,2-0.7c0.4-0.5,0.6-1.3,0.6-2.3v-4c0-0.6-0.1-1-0.3-1.3 &#9;C59.3,268.6,59,268.5,58.5,268.5" />
    <path class="st3"
        d="M94.2,401.1c12.2-5.1,24.8-10.5,36.4-16.6c11.5-6.1,21.5-13.5,26.7-25.8c3.6-8.4,4.6-17.8,4.5-26.8v-0.1 &#9;l-0.3-45c-41-8.2-109-2.2-134.7,34.4l-0.1,10.6v0.1c-0.2,9.1,0.9,18.4,4.5,26.8c5.2,12.3,15.2,19.7,26.7,25.8 &#9;C69.4,390.7,81.9,396.1,94.2,401.1" />
    <g>
        <defs>
            <path id="SVGID_1_"
                d="M26.7,321.1l-0.1,10.6v0.1c-0.2,9.1,0.9,18.4,4.5,26.8c5.2,12.3,15.2,19.7,26.7,25.8 &#9;&#9;&#9;c11.6,6.2,24.2,11.5,36.4,16.6c12.2-5.1,24.7-10.4,36.4-16.6c11.5-6.1,21.5-13.5,26.7-25.8c3.6-8.4,4.6-17.8,4.5-26.8v-0.1 &#9;&#9;&#9;l-0.3-45c-10.3-2.1-22.4-3.2-35-3.2C88.8,283.6,46,293.8,26.7,321.1" />
        </defs>
        <clipPath id="SVGID_2_">
            <use xlink:href="#SVGID_1_" style="overflow:visible;" />
        </clipPath>
        <path class="st4"
            d="M95.7,379.4c-0.2,0.4-0.1,1,0.4,1.4c0.5,0.4,1.2,0.4,1.8,0.4c6.5,0.2,11.9-1.8,16.1-6c0.6-0.6,0.5-1.5-0.1-1.4 &#9;&#9;c-4.8,3.4-10.2,5.4-15.9,4.9C97.2,378.7,96,378.5,95.7,379.4 M93.6,378.8c0.5,0.1,0.9,0.6,0.8,1.1c-0.1,0.5-0.6,0.8-1.1,0.7 &#9;&#9;c-0.5-0.1-0.9-0.6-0.8-1.1C92.6,379,93.1,378.7,93.6,378.8 M91.3,378.4c0.3,0.1,0.4,0.3,0.4,0.5c0,0.2-0.3,0.4-0.6,0.3 &#9;&#9;c-0.3-0.1-0.4-0.3-0.4-0.5C90.8,378.5,91,378.3,91.3,378.4 M83.4,367.8c7.3,14.8,38,9.1,34.5-11.3c2.5,0.8,3.8,3.2,4.1,6.6 &#9;&#9;c0.4,4-0.7,7.7-1.2,11.7c-0.8,6.2-0.7,12,0.3,19.1c-2,1.3-4.5,2.4-7,3.3c-0.7-2.9-1.6-6-2.3-8.8c-0.6,0.2-1.3,0.4-1.9,0.5 &#9;&#9;c0.7,3,1.5,6,2.3,8.9c-0.6,0.2-1.1,0.3-1.7,0.4c-1.1-2.7-2.2-5.4-3.3-8c-0.8,0-1.9-0.1-2.7-0.2c1.3,2.8,2.6,5.8,3.9,8.7 &#9;&#9;c-0.9,0.1-1.7,0.3-2.5,0.3c-1.5-2.9-3.1-5.9-4.6-8.8c-0.8,0-1.6-0.1-2.4-0.2c1.7,3,3.5,6.2,5.1,9.2l0.1,0c-1.2,0-2.4,0-3.4-0.2 &#9;&#9;l-11.5-16.2c6.6,5.8,20.4,5.9,26.6-0.7c1.8-1.5,0.6-4.7-2.5-2.2c-2.6,2.1-6,3.5-9.5,4c-5.4,0.9-11-0.1-15.4-3.3 &#9;&#9;C84.6,377.8,82,373.7,83.4,367.8" />
    </g>
    <path class="st2"
        d="M115.5,329.9c-7,3.2-9,13.3-8.6,20.5c0.2,2.7,0.5,5.5-0.7,8.1c-3.3,7.5-14.8,2.9-12.3-7.5 &#9;c2.5-10.5,7.7-20,7.8-32.4c0-10.2-4.1-19.3-12.4-27.5c2.6,9-1.7,13.7-6.6,19.1c-2.7,3-5.4,5.8-6.6,9.7c-1.8,5.3-1.2,11.2,2.7,16.4 &#9;c-0.4-3.3-0.5-6.4,0-9.2c1.7-8.1,12.3-11.9,14.9-19c2.8,4.5,1.9,11-0.5,17.1c-4.5,9.4-13.6,22.2-11.2,33.1 &#9;c1.4,6.6,4.7,11.3,10.9,13.8c7.6,3.1,17,0,20.7-7.6c1.8-3.7,1.9-7.9,0.7-12.4C110.2,338.3,112.7,333.9,115.5,329.9" />
    <path class="st5"
        d="M113.8,331.5c-0.2,0.2-0.4,0.3-0.6,0.5c-0.8,0.7-1.4,1.4-2,2.3c-3.1,4.4-4,10.9-3.7,16l0,0.6 &#9;c0.2,2.6,0.4,5.3-0.8,7.8c-1.1,2.4-3,3.7-5,3.9c-1.1,0.1-2.3,0-3.3-0.4c-1.1-0.4-2.1-1.1-2.9-2c-1.9-2-3-5.3-2-9.3 &#9;c0.8-3.5,2-6.9,3.1-10.4c2.3-6.8,4.6-13.7,4.6-21.9c0-5-1-9.8-3-14.3c-1.8-4-4.4-7.8-7.8-11.5c1.5,8-2.5,12.5-7.2,17.7l0,0l-0.2,0.2 &#9;c-2.6,2.8-5.1,5.6-6.3,9.3h0l0,0c-0.2,0.7-0.4,1.4-0.6,2.2c-0.1,0.7-0.3,1.5-0.3,2.2c-0.2,3.2,0.5,6.6,2.3,9.7 &#9;c-0.1-0.9-0.1-1.8-0.1-2.7c0-1.6,0.1-3.1,0.4-4.5c0.9-4.6,4.5-7.8,8-10.9c2.9-2.6,5.7-5.1,6.9-8.2l0.4-1l0.6,0.9l0,0v0 &#9;c0.4,0.7,0.7,1.4,1,2.1c0.3,0.7,0.5,1.5,0.6,2.3c0.7,4-0.3,8.7-2,13.2l0,0l0,0l0,0c-1,2-2.1,4.2-3.4,6.5c-4.5,8.2-9.6,17.9-7.8,26.2 &#9;c0.7,3.2,1.9,6,3.6,8.2c1.7,2.2,4,4,7,5.2l0,0l0,0c1,0.4,2.1,0.7,3.2,0.9c1.1,0.2,2.2,0.3,3.3,0.2c5.6-0.2,11-3.2,13.6-8.4 &#9;c0.9-1.8,1.3-3.7,1.4-5.7c0.1-2-0.2-4.1-0.7-6.3c-2-7-2.4-11.7-1.9-15.1C112.1,334.9,112.9,333.1,113.8,331.5 M115.2,329.4 &#9;L115.2,329.4l0.7,0.8c-1.3,2-2.6,4-3.1,7.2c-0.5,3.3-0.1,7.8,1.9,14.6v0c0.6,2.3,0.9,4.6,0.8,6.7c-0.1,2.1-0.6,4.2-1.5,6.1 &#9;c-2.7,5.6-8.5,8.9-14.5,9c-1.2,0-2.3,0-3.5-0.2s-2.3-0.5-3.4-1h0l0,0c-3.2-1.3-5.6-3.1-7.4-5.5c-1.8-2.4-3-5.3-3.8-8.7 &#9;c-1.9-8.7,3.4-18.6,7.9-27c1.2-2.3,2.4-4.4,3.3-6.4c1.7-4.3,2.6-8.8,2-12.6c-0.1-0.7-0.3-1.4-0.5-2.1c-0.1-0.3-0.2-0.6-0.4-1 &#9;c-1.4,2.9-4,5.2-6.7,7.6c-3.4,3-6.8,6.1-7.7,10.3c-0.3,1.3-0.4,2.8-0.4,4.3c0,1.5,0.1,3.1,0.4,4.7l-1,0.4c-2.9-3.9-4-8.1-3.8-12.2 &#9;c0.1-0.8,0.2-1.6,0.3-2.4c0.2-0.8,0.4-1.5,0.6-2.3l0,0c1.3-3.9,3.9-6.8,6.5-9.7l0.2-0.2l0,0c4.8-5.3,9-9.9,6.5-18.6l0.9-0.5 &#9;c4.2,4.2,7.3,8.5,9.4,13.2c2.1,4.6,3.1,9.5,3.1,14.7c0,8.3-2.4,15.3-4.7,22.2c-1.1,3.4-2.3,6.8-3.1,10.3c-0.9,3.7,0.1,6.5,1.8,8.4 &#9;c0.7,0.8,1.6,1.4,2.5,1.7c0.9,0.3,1.9,0.5,2.8,0.4c1.7-0.2,3.3-1.3,4.2-3.3c1-2.3,0.8-4.8,0.7-7.3v0l0-0.6c-0.3-5.2,0.6-12,3.9-16.6 &#9;c0.6-0.9,1.4-1.8,2.2-2.5C113.3,330.5,114.2,329.9,115.2,329.4" />
</svg>