<svg width="281" height="281" viewBox="0 0 281 281" fill="none" xmlns="http://www.w3.org/2000/svg">
<circle cx="140.5" cy="140.5" r="134.5" stroke="url(#paint0_linear_4_23)" stroke-width="12"/>
<path d="M264 141C264 208.931 208.931 264 141 264C73.069 264 18 208.931 18 141C18 73.069 73.069 18 141 18C208.931 18 264 73.069 264 141Z" fill="url(#paint1_linear_4_23)"/>
<path d="M140 49C122 49 98.5 58.5 98.5 99.6701C98.5 108.054 97.1662 113.157 90.0619 120.083C77.1464 132.674 57.0241 160.909 52.4743 176.583C50.7752 182.437 52.4743 194.445 77.4601 182.78C77.9467 200.52 91.7653 236 146.067 236C177.45 236 205.185 209.39 205.185 182.78C213.457 190.314 230 192.987 230 182.78C230 169.658 213.894 141.225 191 120.083C184.954 114.5 183 109.5 183 99.6701C183 61 158 49 140 49Z" fill="white"/>
<path d="M92 163C92 167.418 95.5817 171 100 171C104.418 171 108 167.418 108 163C108 158.582 104.418 155 100 155C95.5817 155 92 158.582 92 163ZM121.986 170.916L120.488 170.849L120.486 170.882V170.916H121.986ZM120.486 232C120.486 232.828 121.158 233.5 121.986 233.5C122.815 233.5 123.486 232.828 123.486 232H120.486ZM100 164.5H118.251V161.5H100V164.5ZM118.251 164.5C118.85 164.5 119.47 164.928 119.963 166.435C120.428 167.854 120.542 169.637 120.488 170.849L123.485 170.982C123.548 169.556 123.43 167.381 122.815 165.502C122.228 163.71 120.923 161.5 118.251 161.5V164.5ZM120.486 170.916V232H123.486V170.916H120.486Z" fill="url(#paint2_linear_4_23)"/>
<path d="M171 139C171 143.418 167.418 147 163 147C158.582 147 155 143.418 155 139C155 134.582 158.582 131 163 131C167.418 131 171 134.582 171 139ZM141.014 150.013L142.513 149.965L142.514 149.989V150.013H141.014ZM142.514 235C142.514 235.828 141.842 236.5 141.014 236.5C140.185 236.5 139.514 235.828 139.514 235H142.514ZM163 140.5H144.749V137.5H163V140.5ZM144.749 140.5C144.592 140.5 144.348 140.556 144.005 141.054C143.645 141.578 143.323 142.403 143.071 143.473C142.572 145.594 142.457 148.205 142.513 149.965L139.515 150.061C139.453 148.15 139.57 145.254 140.151 142.786C140.439 141.563 140.868 140.323 141.533 139.355C142.216 138.362 143.271 137.5 144.749 137.5V140.5ZM142.514 150.013V235H139.514V150.013H142.514Z" fill="url(#paint3_linear_4_23)"/>
<path d="M190 177C190 181.418 186.418 185 182 185C177.582 185 174 181.418 174 177C174 172.582 177.582 169 182 169C186.418 169 190 172.582 190 177ZM160.014 183.654L161.512 183.574L161.514 183.614V183.654H160.014ZM161.514 235C161.514 235.828 160.842 236.5 160.014 236.5C159.185 236.5 158.514 235.828 158.514 235H161.514ZM182 178.5H163.749V175.5H182V178.5ZM163.749 178.5C162.999 178.5 162.44 178.932 162.009 180.039C161.572 181.162 161.46 182.595 161.512 183.574L158.516 183.733C158.45 182.494 158.571 180.6 159.213 178.951C159.861 177.286 161.228 175.5 163.749 175.5V178.5ZM161.514 183.654V235H158.514V183.654H161.514Z" fill="url(#paint4_linear_4_23)"/>
<defs>
<linearGradient id="paint0_linear_4_23" x1="281" y1="141" x2="-5.86204e-06" y2="141" gradientUnits="userSpaceOnUse">
<stop stop-color="#FF5C00"/>
<stop offset="1" stop-color="#FFC908"/>
</linearGradient>
<linearGradient id="paint1_linear_4_23" x1="264" y1="141" x2="18" y2="141" gradientUnits="userSpaceOnUse">
<stop stop-color="#FF5C00"/>
<stop offset="1" stop-color="#FFC908"/>
</linearGradient>
<linearGradient id="paint2_linear_4_23" x1="113.829" y1="192.333" x2="93.2419" y2="192.407" gradientUnits="userSpaceOnUse">
<stop stop-color="#FF8A00"/>
<stop offset="1" stop-color="#FFAB08"/>
</linearGradient>
<linearGradient id="paint3_linear_4_23" x1="149.171" y1="179.812" x2="169.758" y2="179.865" gradientUnits="userSpaceOnUse">
<stop stop-color="#FF8A00"/>
<stop offset="1" stop-color="#FF8A00"/>
</linearGradient>
<linearGradient id="paint4_linear_4_23" x1="168.171" y1="201.657" x2="188.758" y2="201.745" gradientUnits="userSpaceOnUse">
<stop stop-color="#FF8A00"/>
<stop offset="1" stop-color="#FF5C00"/>
</linearGradient>
</defs>
</svg>
