<svg xmlns="http://www.w3.org/2000/svg" id="a5b66522-2d0b-4d2b-9ca0-25f662c860cf" data-name="Layer 1"
    viewBox="0 0 26 26">
    <g id="b72f5698-1c43-4a08-8b57-8ac749a07216" data-name="Page-1">
        <g id="f731df14-8d9a-4002-8f9a-a848309208fa" data-name="Homepage">
            <g id="bdfa7f62-b961-47b8-873b-1fb70dc137d1" data-name="Sticky-Social-Icons">
                <g id="f7176559-406d-4faa-b9a3-f0818c0693ca" data-name="Group-5">
                    <path id="e8aaf532-0893-42c1-aea8-a21edf8137c2" data-name="Fill-1"
                        d="M23.1073,4.3306A1.4446,1.4446,0,1,0,21.663,5.7791a1.45,1.45,0,0,0,1.4443-1.4485ZM13.01,5.7807a7.2151,7.2151,0,1,0,7.208,7.2146A7.2075,7.2075,0,0,0,13.01,5.7807ZM25.9918,13.12c0,1.9159.022,3.8322-.006,5.7476a7.2237,7.2237,0,0,1-5.399,6.8873,6.8057,6.8057,0,0,1-1.7214.2295c-3.9072.0017-7.8149.0427-11.7212-.0132a6.97,6.97,0,0,1-6.27-3.7959,6.7,6.7,0,0,1-.8578-3.3476c-.0046-3.8968-.04-7.794.0115-11.69A6.97,6.97,0,0,1,3.7357.9106a6.867,6.867,0,0,1,3.53-.907c3.8819.001,7.764-.0125,11.6456.0071a6.8893,6.8893,0,0,1,4.5545,1.7279A7.03,7.03,0,0,1,25.8718,5.93a7.7869,7.7869,0,0,1,.1155,1.3339c.012,1.9519.0052,3.904.0052,5.8559Z"
                        transform="translate(0 0)" style="fill-rule:evenodd"></path>
                    <path id="ae30d5b5-b0cd-4931-87e3-deb52029baa9" data-name="Fill-3"
                        d="M12.9971,8.3571a4.6429,4.6429,0,1,1-4.64,4.6445,4.6422,4.6422,0,0,1,4.64-4.6445"
                        transform="translate(0 0)" style="fill-rule:evenodd"></path>
                </g>
            </g>
        </g>
    </g>
</svg>