<?xml version="1.0" encoding="UTF-8" standalone="no"?>
<svg
   viewBox="0 0 300 100"
   version="1.1"
   id="svg2"
   width="300"
   height="100"
   sodipodi:docname="logo.svg"
   inkscape:version="1.3.1 (91b66b0783, 2023-11-16, custom)"
   xmlns:inkscape="http://www.inkscape.org/namespaces/inkscape"
   xmlns:sodipodi="http://sodipodi.sourceforge.net/DTD/sodipodi-0.dtd"
   xmlns="http://www.w3.org/2000/svg"
   xmlns:svg="http://www.w3.org/2000/svg">
  <sodipodi:namedview
     id="namedview1"
     pagecolor="#ffffff"
     bordercolor="#000000"
     borderopacity="0.25"
     inkscape:showpageshadow="2"
     inkscape:pageopacity="0.0"
     inkscape:pagecheckerboard="0"
     inkscape:deskcolor="#d1d1d1"
     inkscape:zoom="4.1366667"
     inkscape:cx="150"
     inkscape:cy="49.91942"
     inkscape:window-width="1920"
     inkscape:window-height="1012"
     inkscape:window-x="56"
     inkscape:window-y="50"
     inkscape:window-maximized="0"
     inkscape:current-layer="svg2" />
  <defs
     id="defs2">
    <style
       id="style1">
      .cls-1 {
        fill: #fff;
      }

      .cls-2 {
        fill: none;
        stroke: #fff;
        stroke-miterlimit: 10;
        stroke-width: 8px;
      }

      .cls-3 {
        fill: url(#linear-gradient);
      }
    </style>
    <linearGradient
       id="linear-gradient"
       x1="12.17"
       y1="283.98001"
       x2="580.12"
       y2="283.98001"
       gradientUnits="userSpaceOnUse">
      <stop
         offset="0"
         stop-color="#17b2d3"
         id="stop1" />
      <stop
         offset=".81"
         stop-color="#6284bd"
         id="stop2" />
    </linearGradient>
  </defs>
  <g
     id="g3"
     transform="matrix(0.14299675,0,0,0.14299675,40.393311,-1.8127134)">
    <g
       id="Circle"
       transform="translate(-174.27726,74.578755)">
      <circle
         id="bg-gradiant"
         class="cls-3"
         cx="296.14001"
         cy="283.98001"
         r="283.98001"
         style="fill:url(#linear-gradient)" />
      <circle
         id="outer-ring"
         class="cls-2"
         cx="295.95999"
         cy="284.35001"
         r="265.09" />
    </g>
    <g
       id="g2"
       transform="translate(-174.27726,74.578755)">
      <g
         id="penguin">
        <path
           class="cls-1"
           d="m 462.84,356.21 c 0.35,1.63 0.84,4.1 0.34,7.22 -0.31,1.9 -0.68,4.37 -2.61,6.72 -2.18,2.66 -4.96,3.52 -5.86,3.78 -2.57,0.76 -4.81,0.41 -6.07,0.22 -1.24,-0.18 -2.14,-0.45 -2.59,-0.59 -4.34,-1.3 -4.61,-0.91 -12.74,-3.03 -5.66,-1.49 -8.49,-2.23 -9.56,-2.67 -0.13,-0.06 -0.72,-0.3 -1.54,-0.46 -0.88,-0.16 -1.86,-0.33 -2.81,0.06 -1.3,0.54 -1.9,1.88 -2.36,2.92 -0.41,0.91 -0.55,1.67 -0.58,1.83 -0.81,4.13 -3.93,12.65 -4.89,15.17 -1.13,2.94 -2.14,5.03 -3,6.83 -1.17,2.43 -4.09,8.25 -8.89,15.17 -2.19,3.15 -6.89,9.57 -14.11,16.66 -1.88,1.85 -6.22,5.99 -12.39,10.61 -2.35,1.76 -12.8,9.47 -28.72,16.28 -2.74,1.17 -5.05,2.06 -6.67,2.67 h -0.07 V 337.43 c 0,-1.93 1.41,-3.5 3.14,-3.5 h 46.87 c 1.12,2.94 3.96,5.03 7.28,5.03 4.3,0 7.78,-3.48 7.78,-7.78 0,-4.3 -3.48,-7.78 -7.78,-7.78 -3.51,0 -6.49,2.34 -7.45,5.55 h -51.22 c -1.91,0 -3.45,1.59 -3.45,3.55 v 124.77 h -0.21 c -4.41,1.34 -8.28,2.26 -11.42,2.91 -2.8,0.58 -6.41,1.32 -11.25,1.81 -0.8,0.08 -4.28,0.42 -8.92,0.5 -1.8,0.03 -3.33,0.01 -4.47,-0.01 V 282.51 c 0,-2.05 1.74,-3.71 3.88,-3.71 h 48.3 c 1.23,2.66 3.92,4.5 7.05,4.5 4.29,0 7.77,-3.49 7.77,-7.78 0,-4.29 -3.48,-7.78 -7.77,-7.78 -3.47,0 -6.41,2.27 -7.41,5.41 h -53.29 c -2.1,0 -3.81,1.93 -3.81,4.31 v 185.11 c -4.23,-0.09 -7.96,-0.38 -11.05,-0.72 -1.26,-0.14 -5.09,-0.57 -10.08,-1.5 -3.18,-0.59 -6.17,-1.26 -8.98,-1.97 V 316.6 c 0,-2.15 -1.44,-3.89 -3.22,-3.89 h -39.59 c -0.88,-3.33 -3.91,-5.78 -7.52,-5.78 -4.3,0 -7.78,3.48 -7.78,7.78 0,4.3 3.48,7.78 7.78,7.78 3.29,0 6.11,-2.04 7.24,-4.93 h 35.32 c 2,0 3.63,1.66 3.63,3.71 v 135.77 h -0.15 c -1.95,-0.64 -4.67,-1.59 -7.85,-2.89 -16.15,-6.54 -26.96,-14.74 -30.08,-17.18 -10.9,-8.53 -17.85,-17.02 -21,-21.15 -1.97,-2.58 -5.93,-8 -9.94,-15.39 -1.13,-2.08 -3.12,-5.76 -5.17,-10.78 -1.44,-3.52 -2.66,-7.07 -3.22,-8.72 -1.15,-3.34 -1.72,-5.01 -1.89,-5.66 -0.1,-0.38 -0.59,-2.28 -1.5,-4.62 -0.46,-1.18 -0.91,-2.16 -1.91,-2.88 -0.7,-0.51 -1.43,-0.7 -1.74,-0.78 -1.18,-0.3 -2.2,-0.15 -2.67,-0.08 -0.3,0.05 -0.52,0.11 -0.63,0.13 -2.11,0.53 -3.17,0.8 -4.94,1.45 -1.38,0.51 -4.51,1.32 -10.78,2.94 -6.69,1.74 -3.7,0.79 -9.11,2.11 -0.48,0.12 -1.55,0.38 -3,0.5 -2.09,0.18 -3.68,-0.06 -4,-0.11 -1.43,-0.22 -3.8,-0.59 -6.05,-2.33 -2.05,-1.58 -2.96,-3.5 -3.45,-4.56 -1.41,-3.06 -1.29,-5.81 -1.22,-7.11 0.11,-2.01 0.57,-3.48 1.22,-5.55 0.61,-1.93 1.3,-3.51 2,-5.11 0.78,-1.79 1.44,-3.1 1.61,-3.45 9.1,-18.23 10.73,-22.21 16,-31.5 2.8,-4.93 7.37,-12.66 13.56,-21.78 1.7,-2.51 7.55,-11.03 15.94,-21.5 2.63,-3.27 5.97,-7.42 10.61,-12.61 2.85,-3.17 7.33,-8.02 9,-9.83 4.93,-5.32 4.84,-5.15 5.67,-6.17 1.17,-1.43 4.79,-6.01 8.06,-12.83 2.37,-4.96 3.5,-8.9 4.61,-12.83 1.27,-4.52 1.3,-5.72 3.55,-17.5 0.27,-1.42 1.76,-9.19 3.61,-18 1.41,-6.71 2.11,-10.07 2.63,-12.12 1.19,-4.67 3.72,-14.37 10.11,-25.07 2.84,-4.75 8.65,-14.26 19.56,-22.26 4.83,-3.54 9.11,-5.64 10.89,-6.48 1.43,-0.67 7.46,-3.43 16.07,-5.11 2.62,-0.51 9.21,-1.65 17.85,-1.28 6.92,0.29 21.38,0.84 35.78,9.96 10.04,6.36 15.68,13.99 18.81,18.3 9.73,13.38 13.13,27.2 15.2,35.63 0.53,2.13 1.31,6.19 2.88,14.31 2.8,14.5 3.13,18 5.21,25.87 1.57,5.94 2.67,10.03 5.05,15.43 1.55,3.5 4.27,9.55 9.44,16.01 0.62,0.78 0.37,0.43 6.38,7.29 2.94,3.36 6,6.86 7.81,8.96 6.04,7.03 10.51,12.96 12.67,15.83 5.63,7.5 9.54,13.4 12.11,17.28 3.3,5 6.88,10.42 11.16,17.95 3.55,6.22 6.11,11.29 8.06,15.16 0.91,1.82 2.68,5.53 6.22,12.95 0.29,0.6 1.02,2.13 1.95,4.16 0.89,1.97 1.62,3.56 2.39,5.45 1.34,3.29 2.01,4.94 2.38,6.72 z"
           id="path2" />
      </g>
    </g>
  </g>
  <text
     xml:space="preserve"
     style="font-size:66.7857px;font-family:ClarendonWideW01-Regular;-inkscape-font-specification:ClarendonWideW01-Regular;fill:#ffffff;stroke-width:1.66965"
     x="110.74102"
     y="73.571663"
     id="text3"><tspan
       id="tspan3"
       x="110.74102"
       y="73.571663"
       style="font-style:normal;font-variant:normal;font-weight:normal;font-stretch:normal;font-family:'Balsamiq Sans';-inkscape-font-specification:'Balsamiq Sans';stroke-width:1.66965">ALiAS</tspan></text>
</svg>
