<svg xmlns="http://www.w3.org/2000/svg" xmlns:xlink="http://www.w3.org/1999/xlink" width="805.671" height="807.932" viewBox="0 0 805.671 807.932"><defs><linearGradient id="a" x1="0.538" y1="0.296" x2="0.5" y2="1" gradientUnits="objectBoundingBox"><stop offset="0" stop-color="#08b5ff"/><stop offset="1" stop-color="#1c1cd1"/></linearGradient></defs><g transform="translate(1.105 188.711) rotate(-17)"><path d="M331.657-.609C437.1,3.782,444.446,104.112,468.271,175.819c.97,2.676,175.161,307.215,175.077,353.037,3.633,29.268-86.675-12.218-117.041-58.678-3.427,5,4.045,23.79-39.389,92.027-27.842,50.064-71.635,84.856-156.444,85.012-156.348.287-177.51-78.385-214.186-176.286C80.27,517.514-1.037,567.1-.969,530.04-.918,502.221,123.143,250.147,175.4,176.357,210.948,106.435,241.264,4.142,331.657-.609Z" transform="translate(0)" opacity="0.81" fill="url(#a)"/><line y1="228.212" x2="0.417" transform="translate(350.371 418.969)" fill="none" stroke="#fff" stroke-linecap="square" stroke-width="2"/><line y1="0.161" x2="87.861" transform="translate(350.948 417.806)" fill="none" stroke="#fff" stroke-linecap="round" stroke-width="2"/><path d="M18.3-.034a18.4,18.4,0,0,1-.067,36.808A18.4,18.4,0,0,1,18.3-.034Z" transform="translate(414.383 397.102)" fill="#fff"/><line y1="147.233" x2="0.269" transform="translate(379.671 492.532)" fill="none" stroke="#fff" stroke-linecap="square" stroke-width="2"/><line y1="0.081" x2="43.931" transform="translate(380.101 491.45)" fill="none" stroke="#fff" stroke-linecap="round" stroke-width="2"/><path d="M18.3-.034a18.4,18.4,0,0,1-.067,36.808A18.4,18.4,0,0,1,18.3-.034Z" transform="translate(401.518 471.33)" fill="#fff"/><line y1="161.957" x2="0.296" transform="translate(291.81 477.97)" fill="none" stroke="#fff" stroke-linecap="square" stroke-width="2"/><line x1="43.931" y2="0.081" transform="translate(248.336 476.969)" fill="none" stroke="#fff" stroke-linecap="round" stroke-width="2"/><path d="M18.3-.034a18.4,18.4,0,0,1-.067,36.808A18.4,18.4,0,0,1,18.3-.034Z" transform="translate(230.348 459.22)" fill="#fff"/></g></svg>